<?xml version="1.0" encoding="UTF-8"?>
<svg width="556px" height="527px" viewBox="0 0 556 527" version="1.1" xmlns="http://www.w3.org/2000/svg" xmlns:xlink="http://www.w3.org/1999/xlink">
    <!-- Generator: Sketch 53.2 (72643) - https://sketchapp.com -->
    <title>무제-1</title>
    <desc>Created with Sketch.</desc>
    <g id="Page-1" stroke="none" stroke-width="1" fill="none" fill-rule="evenodd">
        <g id="Artboard" transform="translate(-90.000000, -89.000000)" fill="#FFFFFF">
            <g id="무제-1" transform="translate(90.000000, 89.000000)">
                <path d="M479.2,62.1 C433.23,20.46 377.97,0.21 310.26,0.21 L217.98,0.21 C92.17,0.21 0.86,91.62 0.86,217.57 C0.86,274.11 21.3,327.12 58.43,366.84 C79,388.85 106.39,407.32 135.77,419.01 C136.43,420.13 137.09,421.23 137.74,422.3 C169.29,473.69 217.66,507.9 277.61,521.22 C294.01,524.86 310.74,526.71 327.34,526.71 C427.92,526.71 508.12,467.68 536.63,372.7 C549.93,329.58 555.88,275.56 555.88,241.16 C555.88,168.45 530.08,108.2 479.2,62.1 Z M532.56,371.46 C504.6,464.62 425.96,522.47 327.34,522.47 C311.05,522.47 294.63,520.66 278.53,517.08 C219.73,504.01 172.3,470.47 141.36,420.08 C140.72,419.04 140.08,417.97 139.43,416.87 C138.95,416.05 138.21,415.42 137.34,415.07 C108.56,403.61 81.63,385.46 61.54,363.94 C25.16,325.02 5.12,273.04 5.12,217.57 C5.12,94.09 94.64,4.46 217.99,4.46 L310.27,4.46 C376.88,4.46 431.21,24.34 476.35,65.24 C526.3,110.5 551.63,169.69 551.63,241.16 C551.63,275.25 545.73,328.76 532.56,371.46 Z" id="Shape"></path>
                <path d="M470.68,71.5 C427.15,32.07 374.68,12.9 310.26,12.9 L217.98,12.9 C99.52,12.9 13.54,98.98 13.54,217.58 C13.54,270.89 32.77,320.83 67.69,358.19 C88.05,379.98 115.27,397.9 144.53,408.81 C145.86,411.21 147.21,413.5 148.54,415.67 C178.25,464.07 223.83,496.29 280.35,508.85 C295.85,512.29 311.66,514.04 327.33,514.04 C422.09,514.04 497.64,458.44 524.5,368.98 C537.41,327.12 543.19,274.63 543.19,241.18 C543.2,172.18 518.8,115.09 470.68,71.5 Z M520.44,367.72 C494.13,455.36 420.14,509.78 327.34,509.78 C311.97,509.78 296.48,508.07 281.28,504.69 C225.91,492.38 181.27,460.83 152.17,413.44 C150.88,411.33 149.56,409.08 148.25,406.74 C147.76,405.86 146.97,405.18 146.02,404.83 C117.38,394.15 90.67,376.55 70.8,355.29 C36.62,318.72 17.8,269.82 17.8,217.58 C17.8,101.44 101.99,17.15 217.99,17.15 L310.27,17.15 C373.59,17.15 425.13,35.96 467.84,74.65 C515.03,117.41 538.95,173.43 538.95,241.17 C538.94,274.3 533.22,326.28 520.44,367.72 Z" id="Shape"></path>
                <path d="M462.17,80.9 C421.08,43.68 371.39,25.58 310.26,25.58 L217.98,25.58 C106.87,25.58 26.23,106.33 26.23,217.58 C26.23,267.67 44.25,314.53 76.96,349.53 C97.13,371.12 124.19,388.45 153.38,398.51 C155.31,402.18 157.36,405.78 159.35,409.03 C187.23,454.43 230.02,484.66 283.1,496.46 C297.7,499.7 312.58,501.35 327.33,501.35 C416.27,501.35 487.18,449.18 512.38,365.23 C524.9,324.63 530.5,273.67 530.5,241.17 C530.51,175.91 507.52,121.99 462.17,80.9 Z M508.33,363.98 C483.68,446.1 414.33,497.1 327.35,497.1 C312.91,497.1 298.34,495.49 284.04,492.31 C232.11,480.77 190.25,451.2 162.99,406.8 C161.06,403.66 159.05,400.1 157.16,396.52 C156.66,395.56 155.81,394.84 154.78,394.48 C126.26,384.65 99.73,367.65 80.08,346.62 C48.1,312.41 30.49,266.58 30.49,217.57 C30.49,108.78 109.35,29.82 217.99,29.82 L310.27,29.82 C370.3,29.82 419.05,47.55 459.32,84.04 C503.74,124.29 526.27,177.16 526.27,241.16 C526.26,273.35 520.72,323.81 508.33,363.98 Z" id="Shape"></path>
                <path d="M453.65,90.29 C415,55.28 368.1,38.26 310.26,38.26 L217.98,38.26 C114.22,38.26 38.91,113.67 38.91,217.58 C38.91,264.44 55.71,308.23 86.23,340.87 C106.23,362.27 133.16,378.97 162.31,388.1 C164.77,393.09 167.45,397.98 170.16,402.4 C196.2,444.81 236.2,473.05 285.86,484.09 C299.56,487.13 313.52,488.68 327.34,488.68 C410.46,488.68 476.73,439.93 500.27,361.51 C512.4,322.17 517.83,272.73 517.83,241.18 C517.83,179.64 496.24,128.88 453.65,90.29 Z M496.21,360.24 C473.22,436.84 408.51,484.41 327.35,484.41 C313.83,484.41 300.19,482.9 286.79,479.93 C238.29,469.15 199.22,441.57 173.79,400.17 C171.17,395.9 168.52,391.07 166.13,386.22 C165.62,385.18 164.7,384.39 163.59,384.04 C135.16,375.14 108.79,358.78 89.34,337.97 C59.57,306.11 43.17,263.36 43.17,217.58 C43.17,116.14 116.69,42.52 217.99,42.52 L310.27,42.52 C367.01,42.52 412.98,59.18 450.81,93.45 C492.47,131.2 513.59,180.9 513.59,241.17 C513.58,272.4 508.21,321.33 496.21,360.24 Z" id="Shape"></path>
                <path d="M445.14,99.69 C408.93,66.89 364.81,50.94 310.26,50.94 L217.98,50.94 C121.57,50.94 51.59,121.02 51.59,217.57 C51.59,261.2 67.18,301.91 95.49,332.2 C115.33,353.43 142.17,369.45 171.34,377.53 C174.22,383.89 177.52,390.14 180.96,395.75 C205.16,435.16 242.38,461.42 288.6,471.69 C301.4,474.53 314.43,475.98 327.33,475.98 C404.63,475.98 466.25,430.66 488.14,357.75 C499.88,319.68 505.14,271.76 505.14,241.16 C505.15,183.37 484.96,135.77 445.14,99.69 Z M484.09,356.51 C462.75,427.6 402.69,471.74 327.34,471.74 C314.75,471.74 302.03,470.33 289.53,467.56 C244.46,457.54 208.17,431.95 184.59,393.54 C181.26,388.11 178.02,381.97 175.21,375.79 C174.69,374.64 173.69,373.78 172.47,373.45 C144.08,365.59 117.84,349.91 98.59,329.31 C71.02,299.81 55.83,260.13 55.83,217.58 C55.83,123.49 124.02,55.2 217.97,55.2 L310.25,55.2 C363.7,55.2 406.88,70.79 442.27,102.85 C481.16,138.09 500.88,184.63 500.88,241.18 C500.9,271.45 495.7,318.86 484.09,356.51 Z" id="Shape"></path>
                <path d="M436.62,109.09 C402.85,78.5 361.51,63.62 310.26,63.62 L217.98,63.62 C128.91,63.62 64.27,128.37 64.27,217.57 C64.27,257.98 78.65,295.61 104.76,323.54 C124.47,344.63 151.26,359.9 180.53,366.79 C183.72,374.6 187.58,382.26 191.78,389.11 C214.14,425.53 248.57,449.8 291.36,459.31 C303.26,461.95 315.37,463.29 327.34,463.29 C398.82,463.29 455.8,421.4 476.03,354 C487.39,317.19 492.47,270.79 492.47,241.15 C492.47,187.1 473.68,142.67 436.62,109.09 Z M471.97,352.77 C452.29,418.34 396.87,459.06 327.34,459.06 C315.68,459.06 303.88,457.75 292.28,455.18 C250.64,445.93 217.14,422.32 195.4,386.91 C191.34,380.29 187.56,372.79 184.46,365.2 C183.94,363.93 182.84,362.98 181.5,362.67 C153.08,355.98 126.93,341.06 107.86,320.65 C82.49,293.51 68.52,256.9 68.52,217.58 C68.52,130.84 131.38,67.88 217.98,67.88 L310.26,67.88 C360.42,67.88 400.82,82.39 433.77,112.25 C469.9,144.99 488.22,188.36 488.22,241.18 C488.22,270.5 483.19,316.38 471.97,352.77 Z" id="Shape"></path>
                <path d="M428.11,118.49 C396.78,90.11 358.23,76.31 310.26,76.31 L217.98,76.31 C136.26,76.31 76.95,135.72 76.95,217.58 C76.95,254.76 90.12,289.32 114.02,314.89 C133.62,335.87 160.45,350.31 189.9,355.82 C193.22,365.17 197.57,374.32 202.58,382.49 C223.1,415.91 254.75,438.2 294.1,446.94 C305.1,449.38 316.28,450.62 327.33,450.62 C392.99,450.62 445.33,412.15 463.9,350.28 C474.87,314.72 479.78,269.86 479.78,241.17 C479.79,190.84 462.4,149.56 428.11,118.49 Z M459.85,349.03 C441.82,409.08 391.05,446.37 327.34,446.37 C316.6,446.37 305.73,445.16 295.03,442.79 C256.82,434.3 226.11,412.68 206.21,380.26 C201.38,372.39 197.13,363.45 193.91,354.4 C193.4,352.97 192.17,351.92 190.69,351.64 C162.17,346.3 136.04,332.22 117.13,311.98 C93.96,287.19 81.21,253.66 81.21,217.57 C81.21,138.18 138.73,80.55 217.99,80.55 L310.27,80.55 C357.13,80.55 394.75,93.99 425.26,121.63 C458.62,151.86 475.54,192.07 475.54,241.16 C475.54,269.54 470.68,313.9 459.85,349.03 Z" id="Shape"></path>
                <path d="M419.59,127.89 C390.7,101.72 354.93,88.99 310.26,88.99 L217.98,88.99 C143.61,88.99 89.63,143.07 89.63,217.57 C89.63,251.52 101.58,283.01 123.28,306.23 C142.83,327.14 169.78,340.64 199.57,344.52 C202.78,355.52 207.51,366.28 213.39,375.85 C232.07,406.27 260.93,426.58 296.86,434.56 C306.95,436.8 317.21,437.94 327.34,437.94 C387.18,437.94 434.88,402.9 451.79,346.54 C462.37,312.24 467.1,268.9 467.1,241.17 C467.11,194.57 451.12,156.45 419.59,127.89 Z M447.73,345.29 C431.36,399.83 385.23,433.69 327.34,433.69 C317.52,433.69 307.57,432.59 297.78,430.41 C263.01,422.68 235.08,403.05 217.01,373.63 C211.37,364.43 206.75,353.96 203.65,343.33 C203.18,341.71 201.79,340.52 200.12,340.3 C171.36,336.56 145.18,323.42 126.39,303.33 C105.43,280.9 93.88,250.45 93.88,217.58 C93.88,145.54 146.07,93.25 217.98,93.25 L310.26,93.25 C353.83,93.25 388.66,105.61 416.74,131.05 C447.34,158.77 462.86,195.83 462.86,241.18 C462.85,268.59 458.18,311.42 447.73,345.29 Z" id="Shape"></path>
                <path d="M411.08,137.29 C384.63,113.33 351.65,101.68 310.26,101.68 L217.98,101.68 C150.96,101.68 102.31,150.42 102.31,217.58 C102.31,281.21 147.15,328.88 209.68,332.76 C212.4,345.59 217.37,358.1 224.2,369.22 C241.04,396.65 267.12,414.96 299.61,422.18 C308.8,424.22 318.13,425.26 327.34,425.26 C381.36,425.26 424.41,393.65 439.67,342.81 C449.86,309.77 454.42,267.96 454.42,241.17 C454.42,198.3 439.84,163.35 411.08,137.29 Z M435.61,341.56 C420.9,390.58 379.41,421.01 327.34,421.01 C318.44,421.01 309.42,420.01 300.54,418.03 C269.2,411.07 244.05,393.42 227.83,366.99 C221.29,356.34 216.46,344.2 213.85,331.87 C213.45,330 211.86,328.62 209.95,328.51 C180.75,326.7 154.37,314.68 135.66,294.67 C116.9,274.6 106.57,247.22 106.57,217.58 C106.57,152.89 153.43,105.93 217.98,105.93 L310.26,105.93 C350.54,105.93 382.59,117.22 408.22,140.44 C436.05,165.66 450.17,199.55 450.17,241.17 C450.17,267.64 445.67,308.94 435.61,341.56 Z" id="Shape"></path>
                <path d="M402.56,146.69 C378.55,124.94 348.35,114.36 310.26,114.36 L217.98,114.36 C158.31,114.36 115,157.77 115,217.58 C115,277.12 158.31,320.33 217.98,320.33 L220.52,320.33 C222.15,335.21 227.1,349.71 235.01,362.58 C250.01,387.01 273.3,403.34 302.37,409.8 C310.66,411.64 319.06,412.58 327.34,412.58 C375.55,412.58 413.95,384.4 427.55,339.07 C437.35,307.29 441.74,267 441.74,241.17 C441.74,202.03 428.56,170.24 402.56,146.69 Z M423.49,337.82 C410.43,381.32 373.59,408.33 327.34,408.33 C319.36,408.33 311.27,407.43 303.29,405.66 C275.38,399.46 253.02,383.8 238.63,360.37 C231.1,348.11 226.3,334.1 224.74,319.88 C224.5,317.72 222.68,316.09 220.51,316.09 L217.97,316.09 C160.76,316.09 119.24,274.67 119.24,217.59 C119.24,160.24 160.76,118.62 217.97,118.62 L310.25,118.62 C347.24,118.62 376.5,128.83 399.7,149.85 C424.77,172.56 437.48,203.29 437.48,241.18 C437.49,266.69 433.16,306.46 423.49,337.82 Z" id="Shape"></path>
                <path d="M394.05,156.08 C372.48,136.54 345.07,127.03 310.26,127.03 L217.98,127.03 C165.66,127.03 127.68,165.11 127.68,217.57 C127.68,269.76 165.66,307.64 217.98,307.64 L232.62,307.64 C232.28,324.66 236.79,341.24 245.81,355.94 C258.97,377.38 279.48,391.72 305.11,397.42 C312.49,399.06 319.97,399.89 327.33,399.89 C369.72,399.89 403.48,375.13 415.42,335.33 C424.83,304.81 429.04,266.05 429.04,241.17 C429.06,205.76 417.28,177.13 394.05,156.08 Z M411.37,334.08 C399.97,372.07 367.77,395.64 327.34,395.64 C320.29,395.64 313.13,394.84 306.04,393.27 C281.56,387.83 261.99,374.15 249.44,353.72 C240.9,339.8 236.55,323.9 236.88,307.73 C236.9,306.59 236.46,305.48 235.67,304.67 C234.87,303.85 233.78,303.39 232.63,303.39 L217.99,303.39 C168.13,303.39 131.94,267.3 131.94,217.57 C131.94,167.57 168.13,131.28 217.99,131.28 L310.27,131.28 C343.97,131.28 370.44,140.42 391.2,159.23 C413.51,179.44 424.82,207.01 424.82,241.16 C424.81,265.73 420.65,303.99 411.37,334.08 Z" id="Shape"></path>
                <path d="M385.53,165.48 C366.4,148.15 341.77,139.72 310.26,139.72 L217.98,139.72 C173,139.72 140.36,172.46 140.36,217.57 C140.36,262.41 173,294.96 217.98,294.96 L246.63,294.96 C243.09,314.15 246.5,332.83 256.62,349.31 C267.94,367.75 285.66,380.11 307.87,385.04 C314.35,386.48 320.9,387.21 327.34,387.21 C363.91,387.21 393.02,365.88 403.31,331.59 C412.33,302.34 416.37,265.1 416.37,241.17 C416.38,209.49 406,184.03 385.53,165.48 Z M399.25,330.34 C389.51,362.81 361.95,382.96 327.34,382.96 C321.22,382.96 314.97,382.26 308.79,380.89 C287.74,376.21 270.95,364.52 260.25,347.08 C250.74,331.59 247.48,313.83 250.82,295.73 C251.05,294.49 250.71,293.21 249.91,292.24 C249.1,291.27 247.91,290.71 246.64,290.71 L217.99,290.71 C175.48,290.71 144.62,259.95 144.62,217.58 C144.62,174.93 175.48,143.98 217.99,143.98 L310.27,143.98 C340.68,143.98 364.37,152.05 382.69,168.64 C402.23,186.35 412.14,210.75 412.14,241.18 C412.13,264.78 408.15,301.51 399.25,330.34 Z" id="Shape"></path>
                <path d="M377.01,174.88 C360.31,159.76 338.48,152.4 310.25,152.4 L217.98,152.4 C180.35,152.4 153.04,179.81 153.04,217.57 C153.04,255.06 180.35,282.27 217.98,282.27 L262.47,282.27 C261.78,285.7 261.02,289.05 260.2,292.28 C255.63,310.09 258.13,327.51 267.43,342.66 C276.91,358.11 291.85,368.48 310.62,372.65 C316.2,373.89 321.82,374.52 327.34,374.52 C358.09,374.52 382.56,356.62 391.19,327.85 C399.82,299.86 403.69,264.14 403.69,241.16 C403.7,213.22 394.72,190.92 377.01,174.88 Z M387.13,326.6 C379.04,353.55 356.13,370.28 327.34,370.28 C322.14,370.28 316.83,369.69 311.55,368.51 C293.93,364.59 279.93,354.89 271.06,340.45 C262.38,326.31 260.05,310.02 264.32,293.35 C265.15,290.05 265.93,286.61 266.64,283.12 C266.89,281.87 266.57,280.57 265.76,279.59 C264.95,278.61 263.74,278.03 262.47,278.03 L217.98,278.03 C182.82,278.03 157.29,252.61 157.29,217.58 C157.29,182.28 182.81,156.66 217.98,156.66 L310.25,156.66 C337.37,156.66 358.27,163.65 374.15,178.04 C390.93,193.24 399.43,214.48 399.43,241.18 C399.44,263.83 395.64,299.03 387.13,326.6 Z" id="Shape"></path>
                <path d="M368.58,184.2 C354.3,171.26 335.23,164.98 310.26,164.98 L217.99,164.98 C187.64,164.98 165.62,187.1 165.62,217.58 C165.62,247.79 187.65,269.72 217.99,269.72 L277.36,269.72 C276.17,278.35 274.45,287.27 272.39,295.42 C268.69,309.86 270.68,323.92 278.16,336.1 C285.82,348.58 298,356.98 313.37,360.39 C318.05,361.43 322.76,361.96 327.36,361.96 C352.34,361.96 372.21,347.45 379.21,324.15 C387.46,297.41 391.15,263.2 391.15,241.17 C391.13,216.92 383.54,197.75 368.58,184.2 Z M375.12,322.9 C368.67,344.39 350.37,357.71 327.34,357.71 C323.05,357.71 318.66,357.22 314.27,356.24 C300.05,353.08 288.81,345.34 281.77,333.87 C274.91,322.7 273.09,309.76 276.5,296.47 C278.59,288.19 280.35,279.14 281.57,270.29 C281.74,269.07 281.37,267.84 280.56,266.91 C279.75,265.98 278.58,265.45 277.35,265.45 L217.98,265.45 C190.1,265.45 169.86,245.31 169.86,217.57 C169.86,189.55 190.1,169.22 217.98,169.22 L310.25,169.22 C334.11,169.22 352.25,175.15 365.71,187.34 C379.75,200.06 386.86,218.17 386.86,241.16 C386.88,262.89 383.24,296.58 375.12,322.9 Z" id="Shape"></path>
                <path d="M360.2,193.44 C348.32,182.68 331.98,177.45 310.26,177.45 L217.99,177.45 C194.87,177.45 178.09,194.33 178.09,217.58 C178.09,240.56 194.87,257.24 217.99,257.24 L291.22,257.24 C290.3,270.09 287.87,285.06 284.46,298.52 C281.62,309.61 283.11,320.35 288.78,329.58 C294.63,339.11 304.07,345.56 316.06,348.22 C319.86,349.06 323.65,349.49 327.34,349.49 C346.6,349.49 361.9,338.35 367.27,320.48 C375.14,294.98 378.66,262.28 378.66,241.17 C378.66,220.59 372.45,204.53 360.2,193.44 Z M363.21,319.22 C358.39,335.28 344.65,345.24 327.35,345.24 C323.97,345.24 320.48,344.85 316.99,344.07 C306.14,341.66 297.64,335.88 292.41,327.35 C287.36,319.12 286.04,309.52 288.59,299.57 C292.02,286 294.53,270.69 295.47,257.54 C295.55,256.36 295.15,255.2 294.34,254.34 C293.54,253.48 292.41,252.99 291.23,252.99 L218,252.99 C197.35,252.99 182.35,238.1 182.35,217.58 C182.35,196.79 197.34,181.7 218,181.7 L310.27,181.7 C330.89,181.7 346.3,186.57 357.36,196.59 C368.68,206.84 374.42,221.84 374.42,241.17 C374.4,261.95 370.94,294.15 363.21,319.22 Z" id="Shape"></path>
                <path d="M351.83,202.68 C342.35,194.09 328.75,189.92 310.26,189.92 L217.99,189.92 C201.84,189.92 190.57,201.29 190.57,217.58 C190.57,233.59 201.85,244.77 217.99,244.77 L302.09,244.77 C302.94,244.77 303.57,244.79 304.04,244.81 C304.08,245.28 304.1,245.91 304.1,246.78 C304.1,262.19 301.2,283.21 296.55,301.62 C294.57,309.36 295.56,316.77 299.41,323.05 C303.45,329.64 310.15,334.13 318.77,336.05 C321.68,336.7 324.56,337.02 327.35,337.02 C340.88,337.02 351.62,329.25 355.36,316.8 C362.84,292.54 366.19,261.34 366.19,241.17 C366.18,224.26 361.35,211.31 351.83,202.68 Z M351.29,315.54 C348.1,326.17 338.93,332.76 327.35,332.76 C324.88,332.76 322.3,332.47 319.7,331.89 C312.23,330.23 306.47,326.4 303.04,320.82 C299.8,315.54 298.98,309.26 300.67,302.67 C305.41,283.92 308.35,262.51 308.35,246.78 C308.35,245.91 308.33,245.14 308.28,244.49 C308.12,242.36 306.4,240.68 304.27,240.56 C303.75,240.53 303.05,240.51 302.09,240.51 L217.99,240.51 C204.13,240.51 194.82,231.29 194.82,217.57 C194.82,203.57 204.13,194.16 217.99,194.16 L310.26,194.16 C327.65,194.16 340.31,197.98 348.97,205.82 C357.57,213.61 361.93,225.5 361.93,241.16 C361.93,261.02 358.64,291.71 351.29,315.54 Z" id="Shape"></path>
            </g>
        </g>
    </g>
</svg>