<?xml version="1.0" encoding="UTF-8"?>
<svg width="300px" height="300px" viewBox="0 0 300 300" version="1.1" xmlns="http://www.w3.org/2000/svg" xmlns:xlink="http://www.w3.org/1999/xlink">
    <!-- Generator: Sketch 53.2 (72643) - https://sketchapp.com -->
    <title>Artboard</title>
    <desc>Created with Sketch.</desc>
    <g id="Artboard" stroke="none" stroke-width="1" fill="none" fill-rule="evenodd">
        <path d="M403.44,259 C375.48,352.16 296.84,410.01 198.22,410.01 C181.93,410.01 165.51,408.2 149.41,404.62 C90.61,391.55 43.18,358.01 12.24,307.62 C11.6,306.58 10.96,305.51 10.31,304.41 C9.83,303.59 9.09,302.96 8.22,302.61 C-20.56,291.15 -47.49,273 -67.58,251.48 C-103.96,212.56 -124,160.58 -124,105.11 C-124,-18.37 -34.48,-108 88.87,-108 L181.15,-108 C247.76,-108 302.09,-88.12 347.23,-47.22 C397.18,-1.96 422.51,57.23 422.51,128.7 C422.51,162.79 416.61,216.3 403.44,259 Z" id="Path" stroke="#FFFFFF" stroke-width="6"></path>
        <path d="M391.64,255.57 C365.33,343.21 291.34,397.63 198.54,397.63 C183.17,397.63 167.68,395.92 152.48,392.54 C97.11,380.23 52.47,348.68 23.37,301.29 C22.08,299.18 20.76,296.93 19.45,294.59 C18.96,293.71 18.17,293.03 17.22,292.68 C-11.42,282 -38.13,264.4 -58,243.14 C-92.18,206.57 -111,157.67 -111,105.43 C-111,-10.71 -26.81,-95 89.19,-95 L181.47,-95 C244.79,-95 296.33,-76.19 339.04,-37.5 C386.23,5.26 410.15,61.28 410.15,129.02 C410.14,162.15 404.42,214.13 391.64,255.57 Z" id="Path" stroke="#FFFFFF" stroke-width="6"></path>
        <path d="M378.84,251.16 C354.19,333.28 284.84,384.28 197.86,384.28 C183.42,384.28 168.85,382.67 154.55,379.49 C102.62,367.95 60.76,338.38 33.5,293.98 C31.57,290.84 29.56,287.28 27.67,283.7 C27.17,282.74 26.32,282.02 25.29,281.66 C-3.23,271.83 -29.76,254.83 -49.41,233.8 C-81.39,199.59 -99,153.76 -99,104.75 C-99,-4.04 -20.14,-83 88.5,-83 L180.78,-83 C240.81,-83 289.56,-65.27 329.83,-28.78 C374.25,11.47 396.78,64.34 396.78,128.34 C396.77,160.53 391.23,210.99 378.84,251.16 Z" id="Path" stroke="#FFFFFF" stroke-width="6"></path>
        <path d="M367.04,247.72 C344.05,324.32 279.34,371.89 198.18,371.89 C184.66,371.89 171.02,370.38 157.62,367.41 C109.12,356.63 70.05,329.05 44.62,287.65 C42,283.38 39.35,278.55 36.96,273.7 C36.45,272.66 35.53,271.87 34.42,271.52 C5.99,262.62 -20.38,246.26 -39.83,225.45 C-69.6,193.59 -86,150.84 -86,105.06 C-86,3.62 -12.48,-70 88.82,-70 L181.1,-70 C237.84,-70 283.81,-53.34 321.64,-19.07 C363.3,18.68 384.42,68.38 384.42,128.65 C384.41,159.88 379.04,208.81 367.04,247.72 Z" id="Path" stroke="#FFFFFF" stroke-width="6"></path>
        <path d="M355.26,244.31 C333.92,315.4 273.86,359.54 198.51,359.54 C185.92,359.54 173.2,358.13 160.7,355.36 C115.63,345.34 79.34,319.75 55.76,281.34 C52.43,275.91 49.19,269.77 46.38,263.59 C45.86,262.44 44.86,261.58 43.64,261.25 C15.25,253.39 -10.99,237.71 -30.24,217.11 C-57.81,187.61 -73,147.93 -73,105.38 C-73,11.29 -4.81,-57 89.14,-57 L181.42,-57 C234.87,-57 278.05,-41.41 313.44,-9.35 C352.33,25.89 372.05,72.43 372.05,128.98 C372.07,159.25 366.87,206.66 355.26,244.31 Z" id="Path" stroke="#FFFFFF" stroke-width="6"></path>
        <path d="M342.45,239.89 C322.77,305.46 267.35,346.18 197.82,346.18 C186.16,346.18 174.36,344.87 162.76,342.3 C121.12,333.05 87.62,309.44 65.88,274.03 C61.82,267.41 58.04,259.91 54.94,252.32 C54.42,251.05 53.32,250.1 51.98,249.79 C23.56,243.1 -2.59,228.18 -21.66,207.77 C-47.03,180.63 -61,144.02 -61,104.7 C-61,17.96 1.86,-45 88.46,-45 L180.74,-45 C230.9,-45 271.3,-30.49 304.25,-0.63 C340.38,32.11 358.7,75.48 358.7,128.3 C358.7,157.62 353.67,203.5 342.45,239.89 Z" id="Path" stroke="#FFFFFF" stroke-width="6"></path>
        <path d="M330.64,236.48 C312.61,296.53 261.84,333.82 198.13,333.82 C187.39,333.82 176.52,332.61 165.82,330.24 C127.61,321.75 96.9,300.13 77,267.71 C72.17,259.84 67.92,250.9 64.7,241.85 C64.19,240.42 62.96,239.37 61.48,239.09 C32.96,233.75 6.83,219.67 -12.08,199.43 C-35.25,174.64 -48,141.11 -48,105.02 C-48,25.63 9.52,-32 88.78,-32 L181.06,-32 C227.92,-32 265.54,-18.56 296.05,9.08 C329.41,39.31 346.33,79.52 346.33,128.61 C346.33,156.99 341.47,201.35 330.64,236.48 Z" id="Path" stroke="#FFFFFF" stroke-width="6"></path>
        <path d="M318.85,233.04 C302.48,287.58 256.35,321.44 198.46,321.44 C188.64,321.44 178.69,320.34 168.9,318.16 C134.13,310.43 106.2,290.8 88.13,261.38 C82.49,252.18 77.87,241.71 74.77,231.08 C74.3,229.46 72.91,228.27 71.24,228.05 C42.48,224.31 16.3,211.17 -2.49,191.08 C-23.45,168.65 -35,138.2 -35,105.33 C-35,33.29 17.19,-19 89.1,-19 L181.38,-19 C224.95,-19 259.78,-6.64 287.86,18.8 C318.46,46.52 333.98,83.58 333.98,128.93 C333.97,156.34 329.3,199.17 318.85,233.04 Z" id="Path" stroke="#FFFFFF" stroke-width="6"></path>
        <path d="M306.04,228.63 C291.33,277.65 249.84,308.08 197.77,308.08 C188.87,308.08 179.85,307.08 170.97,305.1 C139.63,298.14 114.48,280.49 98.26,254.06 C91.72,243.41 86.89,231.27 84.28,218.94 C83.88,217.07 82.29,215.69 80.38,215.58 C51.18,213.77 24.8,201.75 6.09,181.74 C-12.67,161.67 -23,134.29 -23,104.65 C-23,39.96 23.86,-7 88.41,-7 L180.69,-7 C220.97,-7 253.02,4.29 278.65,27.51 C306.48,52.73 320.6,86.62 320.6,128.24 C320.6,154.71 316.1,196.01 306.04,228.63 Z" id="Path" stroke="#FFFFFF" stroke-width="6"></path>
        <path d="M294.25,225.2 C281.19,268.7 244.35,295.71 198.1,295.71 C190.12,295.71 182.03,294.81 174.05,293.04 C146.14,286.84 123.78,271.18 109.39,247.75 C101.86,235.49 97.06,221.48 95.5,207.26 C95.26,205.1 93.44,203.47 91.27,203.47 L88.73,203.47 C31.52,203.47 -10,162.05 -10,104.97 C-10,47.62 31.52,6 88.73,6 L181.01,6 C218,6 247.26,16.21 270.46,37.23 C295.53,59.94 308.24,90.67 308.24,128.56 C308.25,154.07 303.92,193.84 294.25,225.2 Z" id="Path" stroke="#FFFFFF" stroke-width="6"></path>
        <path d="M282.43,221.8 C271.03,259.79 238.83,283.36 198.4,283.36 C191.35,283.36 184.19,282.56 177.1,280.99 C152.62,275.55 133.05,261.87 120.5,241.44 C111.96,227.52 107.61,211.62 107.94,195.45 C107.96,194.31 107.52,193.2 106.73,192.39 C105.93,191.57 104.84,191.11 103.69,191.11 L89.05,191.11 C39.19,191.11 3,155.02 3,105.29 C3,55.29 39.19,19 89.05,19 L181.33,19 C215.03,19 241.5,28.14 262.26,46.95 C284.57,67.16 295.88,94.73 295.88,128.88 C295.87,153.45 291.71,191.71 282.43,221.8 Z" id="Path" stroke="#FFFFFF" stroke-width="6"></path>
        <path d="M269.63,218.36 C259.89,250.83 232.33,270.98 197.72,270.98 C191.6,270.98 185.35,270.28 179.17,268.91 C158.12,264.23 141.33,252.54 130.63,235.1 C121.12,219.61 117.86,201.85 121.2,183.75 C121.43,182.51 121.09,181.23 120.29,180.26 C119.48,179.29 118.29,178.73 117.02,178.73 L88.37,178.73 C45.86,178.73 15,147.97 15,105.6 C15,62.95 45.86,32 88.37,32 L180.65,32 C211.06,32 234.75,40.07 253.07,56.66 C272.61,74.37 282.52,98.77 282.52,129.2 C282.51,152.8 278.53,189.53 269.63,218.36 Z" id="Path" stroke="#FFFFFF" stroke-width="6"></path>
        <path d="M257.84,213.94 C249.75,240.89 226.84,257.62 198.05,257.62 C192.85,257.62 187.54,257.03 182.26,255.85 C164.64,251.93 150.64,242.23 141.77,227.79 C133.09,213.65 130.76,197.36 135.03,180.69 C135.86,177.39 136.64,173.95 137.35,170.46 C137.6,169.21 137.28,167.91 136.47,166.93 C135.66,165.95 134.45,165.37 133.18,165.37 L88.69,165.37 C53.53,165.37 28,139.95 28,104.92 C28,69.62 53.52,44 88.69,44 L180.96,44 C208.08,44 228.98,50.99 244.86,65.38 C261.64,80.58 270.14,101.82 270.14,128.52 C270.15,151.17 266.35,186.37 257.84,213.94 Z" id="Path" stroke="#FFFFFF" stroke-width="6"></path>
        <path d="M246.26,210.68 C239.81,232.17 221.51,245.49 198.48,245.49 C194.19,245.49 189.8,245 185.41,244.02 C171.19,240.86 159.95,233.12 152.91,221.65 C146.05,210.48 144.23,197.54 147.64,184.25 C149.73,175.97 151.49,166.92 152.71,158.07 C152.88,156.85 152.51,155.62 151.7,154.69 C150.89,153.76 149.72,153.23 148.49,153.23 L89.12,153.23 C61.24,153.23 41,133.09 41,105.35 C41,77.33 61.24,57 89.12,57 L181.39,57 C205.25,57 223.39,62.93 236.85,75.12 C250.89,87.84 258,105.95 258,128.94 C258.02,150.67 254.38,184.36 246.26,210.68 Z" id="Path" stroke="#FFFFFF" stroke-width="6"></path>
        <path d="M233.86,206.52 C229.04,222.58 215.3,232.54 198,232.54 C194.62,232.54 191.13,232.15 187.64,231.37 C176.79,228.96 168.29,223.18 163.06,214.65 C158.01,206.42 156.69,196.82 159.24,186.87 C162.67,173.3 165.18,157.99 166.12,144.84 C166.2,143.66 165.8,142.5 164.99,141.64 C164.19,140.78 163.06,140.29 161.88,140.29 L88.65,140.29 C68,140.29 53,125.4 53,104.88 C53,84.09 67.99,69 88.65,69 L180.92,69 C201.54,69 216.95,73.87 228.01,83.89 C239.33,94.14 245.07,109.14 245.07,128.47 C245.05,149.25 241.59,181.45 233.86,206.52 Z" id="Path" stroke="#FFFFFF" stroke-width="6"></path>
        <path d="M222.47,202.38 C219.28,213.01 210.11,219.6 198.53,219.6 C196.06,219.6 193.48,219.31 190.88,218.73 C183.41,217.07 177.65,213.24 174.22,207.66 C170.98,202.38 170.16,196.1 171.85,189.51 C176.59,170.76 179.53,149.35 179.53,133.62 C179.53,132.75 179.51,131.98 179.46,131.33 C179.3,129.2 177.58,127.52 175.45,127.4 C174.93,127.37 174.23,127.35 173.27,127.35 L89.17,127.35 C75.31,127.35 66,118.13 66,104.41 C66,90.41 75.31,81 89.17,81 L181.44,81 C198.83,81 211.49,84.82 220.15,92.66 C228.75,100.45 233.11,112.34 233.11,128 C233.11,147.86 229.82,178.55 222.47,202.38 Z" id="Path" stroke="#FFFFFF" stroke-width="6"></path>
    </g>
</svg>