<?xml version="1.0" encoding="UTF-8"?>
<svg width="300px" height="300px" viewBox="0 0 300 300" version="1.1" xmlns="http://www.w3.org/2000/svg" xmlns:xlink="http://www.w3.org/1999/xlink">
    <!-- Generator: Sketch 53.2 (72643) - https://sketchapp.com -->
    <title>Artboard Copy</title>
    <desc>Created with Sketch.</desc>
    <g id="Artboard-Copy" stroke="none" stroke-width="1" fill="none" fill-rule="evenodd">
        <path d="M216.2185,160.3349 C212.0275,160.3349 207.7345,161.2559 203.4495,163.0769 C188.3565,169.5109 169.4325,173.0539 150.1655,173.0539 C118.8595,173.0539 118.8595,166.9149 118.8595,156.7459 C118.8595,141.3809 121.4245,123.3369 126.0735,105.9649 C130.3365,90.1889 121.9615,76.7059 104.7355,71.6169 C104.7015,71.6069 104.6675,71.5969 104.6335,71.5869 C100.7285,70.4709 96.8675,69.9049 93.1565,69.9049 C80.1285,69.9049 70.1255,76.7659 66.4005,88.2539 C59.8285,108.4939 55.9055,135.2389 55.9055,159.7959 C55.9055,184.6789 63.5585,202.3369 79.3025,213.7799 C94.4415,224.7829 116.9585,229.9079 150.1655,229.9079 C178.9315,229.9079 205.4175,224.7949 226.7055,215.1439 C241.5155,208.5179 247.6115,192.7229 241.2155,177.5699 C236.7455,166.7769 227.4055,160.3349 216.2185,160.3349" id="Path" fill="#000000"></path>
        <path d="M211.6174,185.0508 C201.1824,189.1308 189.6794,191.9778 177.4284,193.5118 C162.4834,195.3838 143.1924,197.1678 126.5454,194.3278 C119.5934,193.1428 98.4364,189.5338 95.3394,169.0328 C93.4784,156.7188 94.9684,143.9878 96.9504,129.8208 C98.4074,119.4188 100.2744,109.5398 102.5014,100.4608 C103.3564,96.9738 101.2234,93.4548 97.7374,92.5998 C94.2524,91.7438 90.7314,93.8778 89.8754,97.3638 C87.5444,106.8688 85.5934,117.1828 84.0764,128.0188 C81.9504,143.2118 80.3634,156.9308 82.4854,170.9748 C87.2334,202.4008 119.3554,208.8248 146.5864,208.8238 C159.7744,208.8228 171.8204,207.3158 179.0434,206.4108 C192.3624,204.7428 204.9144,201.6298 216.3514,197.1578 C219.6954,195.8508 221.3454,192.0808 220.0384,188.7378 C218.7304,185.3938 214.9604,183.7428 211.6174,185.0508" id="Fill-8" fill="#000000"></path>
        <path d="M216.3517,197.1582 C204.9137,201.6302 192.3627,204.7432 179.0437,206.4112 C171.8197,207.3162 159.7747,208.8232 146.5857,208.8242 C119.3557,208.8252 87.2337,202.4002 82.4847,170.9752 C80.3637,156.9312 81.9507,143.2122 84.0767,128.0182 C85.5937,117.1822 87.5447,106.8692 89.8757,97.3642 C90.7307,93.8772 94.2517,91.7442 97.7367,92.5992 C101.2237,93.4542 103.3567,96.9742 102.5017,100.4602 C100.2747,109.5402 98.4077,119.4182 96.9507,129.8202 C94.9687,143.9882 93.4787,156.7192 95.3397,169.0332 C98.4367,189.5332 119.5937,193.1422 126.5457,194.3282 C143.1927,197.1672 162.4827,195.3832 177.4287,193.5122 C189.6797,191.9772 201.1827,189.1312 211.6177,185.0512 C214.9607,183.7432 218.7307,185.3942 220.0387,188.7382 C221.3457,192.0812 219.6947,195.8512 216.3517,197.1582 M208.1167,174.0292 C192.6127,180.6382 172.5317,184.9592 150.1647,184.9592 C116.6127,184.9592 106.9547,177.3342 106.9547,156.7452 C106.9547,140.2242 109.7497,120.9072 114.5797,102.8602 C117.1217,93.4552 112.5457,86.3382 101.3627,83.0342 C90.6867,79.9842 80.7737,82.5252 77.7237,91.9302 C71.3697,111.5022 67.8107,137.1742 67.8107,159.7962 C67.8107,200.4642 89.6697,218.0022 150.1647,218.0022 C178.1237,218.0022 202.7797,212.9182 221.8427,204.2772 C231.5017,199.9552 233.7887,190.5512 230.2297,182.1632 C226.6717,173.5212 218.2837,169.7092 208.1167,174.0292" id="Fill-6" fill="#FFFFFF"></path>
        <path d="M226.7053,215.1441 C205.4173,224.7941 178.9323,229.9081 150.1653,229.9081 C116.9583,229.9081 94.4413,224.7831 79.3033,213.7801 C63.5593,202.3371 55.9053,184.6791 55.9053,159.7961 C55.9053,135.2391 59.8283,108.4941 66.4003,88.2541 C70.1253,76.7661 80.1283,69.9051 93.1563,69.9051 C96.8673,69.9051 100.7283,70.4711 104.6333,71.5871 C104.6673,71.5971 104.7013,71.6061 104.7353,71.6171 C121.9613,76.7061 130.3363,90.1881 126.0733,105.9651 C121.4243,123.3371 118.8593,141.3811 118.8593,156.7461 C118.8593,166.9151 118.8593,173.0541 150.1653,173.0541 C169.4333,173.0541 188.3563,169.5111 203.4493,163.0771 C207.7343,161.2561 212.0273,160.3351 216.2193,160.3351 C227.4053,160.3351 236.7453,166.7761 241.2153,177.5701 C247.6113,192.7231 241.5163,208.5181 226.7053,215.1441 M252.2153,173.0151 C245.9343,157.8501 232.1423,148.4301 216.2193,148.4301 C210.4183,148.4301 204.5553,149.6711 198.7803,152.1251 C185.1313,157.9441 167.8653,161.1481 150.1653,161.1481 C141.6553,161.1481 136.5923,160.6581 133.6173,160.1401 C131.9733,159.8531 130.7653,158.4411 130.7653,156.7711 L130.7653,156.7461 C130.7653,142.3901 133.1833,125.4491 137.5663,109.0711 C143.4843,87.1681 131.3713,67.0711 108.1513,60.2111 L107.9043,60.1401 C102.9353,58.7201 97.9743,58.0001 93.1563,58.0001 C74.9833,58.0001 60.3923,68.1861 55.0773,84.5771 C48.1413,105.9381 44.0003,134.0571 44.0003,159.7961 C44.0003,188.3571 53.5223,209.7601 72.3033,223.4111 C89.5773,235.9661 114.3183,241.8131 150.1653,241.8131 C180.6153,241.8131 208.7823,236.3411 231.5673,226.0111 C252.1963,216.7821 261.0593,193.9661 252.2153,173.0151" id="Fill-1" fill="#FFFFFF"></path>
    </g>
</svg>