<?xml version="1.0" encoding="UTF-8"?>
<svg width="300px" height="300px" viewBox="0 0 300 300" version="1.1" xmlns="http://www.w3.org/2000/svg" xmlns:xlink="http://www.w3.org/1999/xlink">
    <!-- Generator: Sketch 53.2 (72643) - https://sketchapp.com -->
    <title>Artboard Copy 2</title>
    <desc>Created with Sketch.</desc>
    <g id="Artboard-Copy-2" stroke="none" stroke-width="1" fill="none" fill-rule="evenodd">
        <path d="M242.7644,229.3782 L173.9184,229.3782 C164.7614,229.3782 161.3264,236.7372 161.3264,242.9512 C161.3264,249.1652 164.5984,256.6882 173.9184,256.6882 L249.6324,256.6882 C269.2564,256.6882 275.9604,249.6552 275.9604,230.8502 L275.9604,229.3782 L242.7644,229.3782 Z" id="c-6-2" fill="#FFFFFF"></path>
        <path d="M106.6213,229.3782 L37.7753,229.3782 C28.6183,229.3782 25.1833,236.7372 25.1833,242.9512 C25.1833,249.1652 28.4553,256.6882 37.7753,256.6882 L113.4893,256.6882 C133.1133,256.6882 139.8173,249.6552 139.8173,230.8502 L139.8173,229.3782 L106.6213,229.3782 Z" id="c-6-1" fill="#FFFFFF"></path>
        <path d="M275.9607,229.3777 L275.9607,188.4957 L172.9257,188.4957 C172.9297,188.4957 172.9337,188.4967 172.9387,188.4967 L242.7647,188.4967 L242.7647,229.3777 L275.9607,229.3777 Z" id="c-5-2" fill="#FFFFFF"></path>
        <path d="M139.8176,229.3777 L139.8176,188.4957 L36.7816,188.4957 C36.7866,188.4957 36.7906,188.4967 36.7956,188.4967 L106.6216,188.4967 L106.6216,229.3777 L139.8176,229.3777 Z" id="c-5-1" fill="#FFFFFF"></path>
        <path d="M275.9607,187.1878 C275.9607,168.2188 269.2567,161.1868 249.6327,161.1868 L172.9387,161.1868 C163.9437,161.1868 160.1827,168.7088 160.1827,174.9228 C160.1827,180.9708 163.7767,188.4888 172.9257,188.4958 L275.9607,188.4958 L275.9607,187.1878 Z" id="c-4-2" fill="#FFFFFF"></path>
        <path d="M139.8176,187.1878 C139.8176,168.2188 133.1136,161.1868 113.4896,161.1868 L36.7956,161.1868 C27.8006,161.1868 24.0396,168.7088 24.0396,174.9228 C24.0396,180.9708 27.6336,188.4888 36.7816,188.4958 L139.8176,188.4958 L139.8176,187.1878 Z" id="c-4-1" fill="#FFFFFF"></path>
        <path d="M24.0393,112.8123 C24.0393,131.7813 30.7433,138.8133 50.3673,138.8133 L127.0613,138.8133 C136.0563,138.8133 139.8173,131.2913 139.8173,125.0773 C139.8173,119.0293 136.2233,111.5113 127.0743,111.5043 L24.0393,111.5043 L24.0393,112.8123 Z" id="c-3-1" fill="#FFFFFF"></path>
        <path d="M160.1824,112.8123 C160.1824,131.7813 166.8864,138.8133 186.5104,138.8133 L263.2044,138.8133 C272.1994,138.8133 275.9604,131.2913 275.9604,125.0773 C275.9604,119.0293 272.3664,111.5113 263.2184,111.5043 L160.1824,111.5043 L160.1824,112.8123 Z" id="c-3-2" fill="#FFFFFF"></path>
        <path d="M24.0393,70.6223 L24.0393,111.5043 L127.0743,111.5043 C127.0703,111.5043 127.0663,111.5033 127.0613,111.5033 L57.2353,111.5033 L57.2353,70.6223 L24.0393,70.6223 Z" id="c-2-1" fill="#FFFFFF"></path>
        <path d="M160.1824,70.6223 L160.1824,111.5043 L263.2184,111.5043 C263.2134,111.5043 263.2094,111.5033 263.2044,111.5033 L193.3784,111.5033 L193.3784,70.6223 L160.1824,70.6223 Z" id="c-2-2" fill="#FFFFFF"></path>
        <path d="M57.2356,70.6219 L126.0816,70.6219 C135.2386,70.6219 138.6736,63.2629 138.6736,57.0489 C138.6736,50.8349 135.4016,43.3119 126.0816,43.3119 L50.3676,43.3119 C30.7436,43.3119 24.0396,50.3449 24.0396,69.1499 L24.0396,70.6219 L57.2356,70.6219 Z" id="c-1-1" fill="#FFFFFF"></path>
        <path d="M193.3786,70.6219 L262.2246,70.6219 C271.3816,70.6219 274.8156,63.2629 274.8156,57.0489 C274.8156,50.8349 271.5446,43.3119 262.2246,43.3119 L186.5106,43.3119 C166.8866,43.3119 160.1826,50.3449 160.1826,69.1499 L160.1826,70.6219 L193.3786,70.6219 Z" id="c-1-2" fill="#FFFFFF"></path>
    </g>
</svg>