<?xml version="1.0" encoding="UTF-8"?>
<svg width="300px" height="300px" viewBox="0 0 300 300" version="1.1" xmlns="http://www.w3.org/2000/svg" xmlns:xlink="http://www.w3.org/1999/xlink">
    <!-- Generator: Sketch 53.2 (72643) - https://sketchapp.com -->
    <title>Artboard Copy 2</title>
    <desc>Created with Sketch.</desc>
    <g id="Artboard-Copy-2" stroke="none" stroke-width="1" fill="none" fill-rule="evenodd">
        <g id="Group-6" transform="translate(25.183300, 229.378200)" fill="#FFFFFF">
            <path d="M217.5811,0 L148.7351,0 C139.5781,0 136.1431,7.359 136.1431,13.573 C136.1431,19.787 139.4151,27.31 148.7351,27.31 L224.4491,27.31 C244.0731,27.31 250.7771,20.277 250.7771,1.472 L250.7771,0 L217.5811,0 Z" id="Fill-16"></path>
            <path d="M81.438,0 L12.592,0 C3.435,0 1.42108547e-14,7.359 1.42108547e-14,13.573 C1.42108547e-14,19.787 3.272,27.31 12.592,27.31 L88.306,27.31 C107.93,27.31 114.634,20.277 114.634,1.472 L114.634,0 L81.438,0 Z" id="Fill-22"></path>
        </g>
        <g id="Group-5" transform="translate(36.781600, 188.495700)" fill="#FFFFFF">
            <path d="M239.1791,40.882 L239.1791,7.10542736e-15 L136.1441,7.10542736e-15 C136.1481,7.10542736e-15 136.1521,0.001 136.1571,0.001 L205.9831,0.001 L205.9831,40.882 L239.1791,40.882 Z" id="Fill-14"></path>
            <path d="M103.036,40.882 L103.036,7.10542736e-15 L2.84217094e-14,7.10542736e-15 C0.005,7.10542736e-15 0.009,0.001 0.014,0.001 L69.84,0.001 L69.84,40.882 L103.036,40.882 Z" id="Fill-20"></path>
        </g>
        <g id="Group-4" transform="translate(24.039600, 161.186800)" fill="#FFFFFF">
            <path d="M251.9211,26.001 C251.9211,7.032 245.2171,-1.42108547e-14 225.5931,-1.42108547e-14 L148.8991,-1.42108547e-14 C139.9041,-1.42108547e-14 136.1431,7.522 136.1431,13.736 C136.1431,19.784 139.7371,27.302 148.8861,27.309 L251.9211,27.309 L251.9211,26.001 Z" id="Fill-18"></path>
            <path d="M115.778,26.001 C115.778,7.032 109.074,-1.42108547e-14 89.45,-1.42108547e-14 L12.756,-1.42108547e-14 C3.761,-1.42108547e-14 7.10542736e-15,7.522 7.10542736e-15,13.736 C7.10542736e-15,19.784 3.594,27.302 12.742,27.309 L115.778,27.309 L115.778,26.001 Z" id="Fill-24"></path>
        </g>
        <g id="Group-3" transform="translate(24.039300, 111.504300)" fill="#FFFFFF">
            <path d="M0,1.308 C0,20.277 6.704,27.309 26.328,27.309 L103.022,27.309 C112.017,27.309 115.778,19.787 115.778,13.573 C115.778,7.525 112.184,0.007 103.035,0 L0,0 L0,1.308 Z" id="Fill-6"></path>
            <path d="M136.1431,1.308 C136.1431,20.277 142.8471,27.309 162.4711,27.309 L239.1651,27.309 C248.1601,27.309 251.9211,19.787 251.9211,13.573 C251.9211,7.525 248.3271,0.007 239.1791,0 L136.1431,0 L136.1431,1.308 Z" id="Fill-12"></path>
        </g>
        <g id="Group-2" transform="translate(24.039300, 70.622300)" fill="#FFFFFF">
            <path d="M-7.10542736e-14,0 L-7.10542736e-14,40.882 L103.035,40.882 C103.031,40.882 103.027,40.881 103.022,40.881 L33.196,40.881 L33.196,0 L-7.10542736e-14,0 Z" id="Fill-2"></path>
            <path d="M136.1431,0 L136.1431,40.882 L239.1791,40.882 C239.1741,40.882 239.1701,40.881 239.1651,40.881 L169.3391,40.881 L169.3391,0 L136.1431,0 Z" id="Fill-8"></path>
        </g>
        <g id="Group-1" transform="translate(24.039600, 43.311900)" fill="#FFFFFF">
            <path d="M33.196,27.31 L102.042,27.31 C111.199,27.31 114.634,19.951 114.634,13.737 C114.634,7.523 111.362,0 102.042,0 L26.328,0 C6.704,0 0,7.033 0,25.838 L0,27.31 L33.196,27.31 Z" id="Fill-4"></path>
            <path d="M169.339,27.31 L238.185,27.31 C247.342,27.31 250.776,19.951 250.776,13.737 C250.776,7.523 247.505,0 238.185,0 L162.471,0 C142.847,0 136.143,7.033 136.143,25.838 L136.143,27.31 L169.339,27.31 Z" id="Fill-10"></path>
        </g>
    </g>
</svg>