<?xml version="1.0" encoding="UTF-8"?>
<svg width="300px" height="300px" viewBox="0 0 300 300" version="1.1" xmlns="http://www.w3.org/2000/svg" xmlns:xlink="http://www.w3.org/1999/xlink">
    <!-- Generator: Sketch 53.2 (72643) - https://sketchapp.com -->
    <title>Artboard Copy 2</title>
    <desc>Created with Sketch.</desc>
    <g id="Artboard-Copy-2" stroke="none" stroke-width="1" fill="none" fill-rule="evenodd">
        <path d="M110,164.91003 C110,178.107547 114.632314,183 128.192057,183 L181.18589,183 C187.401233,183 190,177.766634 190,173.443297 C190,169.235454 187.516627,164.00487 181.195564,164 L110,164 L110,164.91003 Z" id="c-6-2" fill="#FFFFFF"></path>
        <path d="M133.166802,135 L181.213001,135 C187.603482,135 190,129.880227 190,125.557049 C190,121.23387 187.717237,116 181.213001,116 L128.373767,116 C114.678583,116 110,120.89297 110,133.975906 L110,135 L133.166802,135 Z" id="c-4-2" fill="#FFFFFF"></path>
        <rect id="c-5-2" fill="#FFFFFF" x="110" y="134.9" width="23" height="29.2"></rect>
        <path d="M14,164.91003 C14,178.107547 18.6323136,183 32.1920572,183 L85.1858902,183 C91.4012334,183 94,177.766634 94,173.443297 C94,169.235454 91.5166266,164.00487 85.1955639,164 L14,164 L14,164.91003 Z" id="c-6-1" fill="#FFFFFF"></path>
        <path d="M37.1668019,135 L85.2130015,135 C91.6034824,135 94,129.880227 94,125.557049 C94,121.23387 91.7172367,116 85.2130015,116 L32.3737667,116 C18.678583,116 14,120.89297 14,133.975906 L14,135 L37.1668019,135 Z" id="c-4-1" fill="#FFFFFF"></path>
        <rect id="c-5-1" fill="#FFFFFF" x="14" y="134.9" width="23" height="29.2"></rect>
        <path d="M206,164.91003 C206,178.107547 210.632314,183 224.192057,183 L277.18589,183 C283.401233,183 286,177.766634 286,173.443297 C286,169.235454 283.516627,164.00487 277.195564,164 L206,164 L206,164.91003 Z" id="c-6-3" fill="#FFFFFF"></path>
        <path d="M229.166802,135 L277.213001,135 C283.603482,135 286,129.880227 286,125.557049 C286,121.23387 283.717237,116 277.213001,116 L224.373767,116 C210.678583,116 206,120.89297 206,133.975906 L206,135 L229.166802,135 Z" id="c-4-3" fill="#FFFFFF"></path>
        <rect id="c-5-3" fill="#FFFFFF" x="206" y="134.9" width="23" height="29.2"></rect>
        <rect id="c-8-2" fill="#FFFFFF" transform="translate(178.500000, 232.500000) scale(-1, 1) translate(-178.500000, -232.500000) " x="167" y="217.9" width="23" height="29.2"></rect>
        <rect id="c-8-3" fill="#FFFFFF" transform="translate(274.500000, 232.500000) scale(-1, 1) translate(-274.500000, -232.500000) " x="263" y="217.9" width="23" height="29.2"></rect>
        <rect id="c-8-1" fill="#FFFFFF" transform="translate(82.500000, 232.500000) scale(-1, 1) translate(-82.500000, -232.500000) " x="71" y="217.9" width="23" height="29.2"></rect>
        <rect id="c-2-2" fill="#FFFFFF" transform="translate(178.500000, 66.500000) scale(-1, 1) translate(-178.500000, -66.500000) " x="167" y="51.9" width="23" height="29.2"></rect>
        <rect id="c-2-3" fill="#FFFFFF" transform="translate(274.500000, 66.500000) scale(-1, 1) translate(-274.500000, -66.500000) " x="263" y="51.9" width="23" height="29.2"></rect>
        <path d="M94.0002759,51.0899703 C94.0002759,37.892453 89.3679623,33 75.8082186,33 L22.8143856,33 C16.5990425,33 14.0002759,38.2333663 14.0002759,42.5567029 C14.0002759,46.7645465 16.4836492,51.9951298 22.8047119,52 L94.0002759,52 L94.0002759,51.0899703 Z" id="c-1-1" fill="#FFFFFF"></path>
        <path d="M190,51.0899703 C190,37.892453 185.367686,33 171.807943,33 L118.81411,33 C112.598767,33 110,38.2333663 110,42.5567029 C110,46.7645465 112.483373,51.9951298 118.804436,52 L190,52 L190,51.0899703 Z" id="c-1-2" fill="#FFFFFF"></path>
        <path d="M286,51.0899703 C286,37.892453 281.367686,33 267.807943,33 L214.81411,33 C208.598767,33 206,38.2333663 206,42.5567029 C206,46.7645465 208.483373,51.9951298 214.804436,52 L286,52 L286,51.0899703 Z" id="c-1-3" fill="#FFFFFF"></path>
        <path d="M94.0002759,217.08997 C94.0002759,203.892453 89.3679623,199 75.8082186,199 L22.8143856,199 C16.5990425,199 14.0002759,204.233366 14.0002759,208.556703 C14.0002759,212.764546 16.4836492,217.99513 22.8047119,218 L94.0002759,218 L94.0002759,217.08997 Z" id="c-7-1" fill="#FFFFFF"></path>
        <path d="M190,217.08997 C190,203.892453 185.367686,199 171.807943,199 L118.81411,199 C112.598767,199 110,204.233366 110,208.556703 C110,212.764546 112.483373,217.99513 118.804436,218 L190,218 L190,217.08997 Z" id="c-7-2" fill="#FFFFFF"></path>
        <path d="M286,217.08997 C286,203.892453 281.367686,199 267.807943,199 L214.81411,199 C208.598767,199 206,204.233366 206,208.556703 C206,212.764546 208.483373,217.99513 214.804436,218 L286,218 L286,217.08997 Z" id="c-7-3" fill="#FFFFFF"></path>
        <path d="M70.8334002,81 L22.7876197,81 C16.3971945,81 14,86.119773 14,90.4429513 C14,94.7661296 16.2834412,100 22.7876197,100 L75.6263936,100 C89.3214579,100 94,95.1070304 94,82.0240937 L94,81 L70.8334002,81 Z" id="c-3-1" fill="#FFFFFF"></path>
        <path d="M166.8334,81 L118.78762,81 C112.397195,81 110,86.119773 110,90.4429513 C110,94.7661296 112.283441,100 118.78762,100 L171.626394,100 C185.321458,100 190,95.1070304 190,82.0240937 L190,81 L166.8334,81 Z" id="c-3-2" fill="#FFFFFF"></path>
        <path d="M262.8334,81 L214.78762,81 C208.397195,81 206,86.119773 206,90.4429513 C206,94.7661296 208.283441,100 214.78762,100 L267.626394,100 C281.321458,100 286,95.1070304 286,82.0240937 L286,81 L262.8334,81 Z" id="c-3-3" fill="#FFFFFF"></path>
        <path d="M70.8334002,247 L22.7876197,247 C16.3971945,247 14,252.119773 14,256.442951 C14,260.76613 16.2834412,266 22.7876197,266 L75.6263936,266 C89.3214579,266 94,261.10703 94,248.024094 L94,247 L70.8334002,247 Z" id="c-9-1" fill="#FFFFFF"></path>
        <path d="M166.8334,247 L118.78762,247 C112.397195,247 110,252.119773 110,256.442951 C110,260.76613 112.283441,266 118.78762,266 L171.626394,266 C185.321458,266 190,261.10703 190,248.024094 L190,247 L166.8334,247 Z" id="c-9-2" fill="#FFFFFF"></path>
        <path d="M262.8334,247 L214.78762,247 C208.397195,247 206,252.119773 206,256.442951 C206,260.76613 208.283441,266 214.78762,266 L267.626394,266 C281.321458,266 286,261.10703 286,248.024094 L286,247 L262.8334,247 Z" id="c-9-3" fill="#FFFFFF"></path>
        <rect id="c-2-1" fill="#FFFFFF" transform="translate(82.500000, 66.500000) scale(-1, 1) translate(-82.500000, -66.500000) " x="71" y="51.9" width="23" height="29.2"></rect>
    </g>
</svg>