<?xml version="1.0" encoding="UTF-8"?>
<svg width="300px" height="300px" viewBox="0 0 300 300" version="1.1" xmlns="http://www.w3.org/2000/svg" xmlns:xlink="http://www.w3.org/1999/xlink">
    <!-- Generator: Sketch 53.2 (72643) - https://sketchapp.com -->
    <title>Artboard Copy 2</title>
    <desc>Created with Sketch.</desc>
    <g id="Artboard-Copy-2" stroke="none" stroke-width="1" fill="none" fill-rule="evenodd">
        <path d="M110,164.91003 C110,178.107547 114.632314,183 128.192057,183 L181.18589,183 C187.401233,183 190,177.766634 190,173.443297 C190,169.235454 187.516627,164.00487 181.195564,164 L110,164 L110,164.91003 Z" id="c-6-2" fill="#FFFFFF"></path>
        <path d="M133.166802,135 L181.213001,135 C187.603482,135 190,129.880227 190,125.557049 C190,121.23387 187.717237,116 181.213001,116 L128.373767,116 C114.678583,116 110,120.89297 110,133.975906 L110,135 L133.166802,135 Z" id="c-4-2" fill="#FFFFFF"></path>
        <rect id="c-5-2" fill="#FFFFFF" x="110" y="134.9" width="23" height="29.2"></rect>
        <path d="M14,164.91003 C14,178.107547 18.6323136,183 32.1920572,183 L85.1858902,183 C91.4012334,183 94,177.766634 94,173.443297 C94,169.235454 91.5166266,164.00487 85.1955639,164 L14,164 L14,164.91003 Z" id="c-6-1" fill="#FFFFFF"></path>
        <path d="M37.1668019,135 L85.2130015,135 C91.6034824,135 94,129.880227 94,125.557049 C94,121.23387 91.7172367,116 85.2130015,116 L32.3737667,116 C18.678583,116 14,120.89297 14,133.975906 L14,135 L37.1668019,135 Z" id="c-4-1" fill="#FFFFFF"></path>
        <rect id="c-5-1" fill="#FFFFFF" x="14" y="134.9" width="23" height="29.2"></rect>
        <path d="M206,164.91003 C206,178.107547 210.632314,183 224.192057,183 L277.18589,183 C283.401233,183 286,177.766634 286,173.443297 C286,169.235454 283.516627,164.00487 277.195564,164 L206,164 L206,164.91003 Z" id="c-6-3" fill="#FFFFFF"></path>
        <path d="M229.166802,135 L277.213001,135 C283.603482,135 286,129.880227 286,125.557049 C286,121.23387 283.717237,116 277.213001,116 L224.373767,116 C210.678583,116 206,120.89297 206,133.975906 L206,135 L229.166802,135 Z" id="c-4-3" fill="#FFFFFF"></path>
        <rect id="c-5-3" fill="#FFFFFF" x="206" y="134.9" width="23" height="29.2"></rect>
        <path d="M110,247.91003 C110,261.107547 114.632314,266 128.192057,266 L181.18589,266 C187.401233,266 190,260.766634 190,256.443297 C190,252.235454 187.516627,247.00487 181.195564,247 L110,247 L110,247.91003 Z" id="c-9-2" fill="#FFFFFF" transform="translate(150.000000, 256.500000) scale(-1, 1) translate(-150.000000, -256.500000) "></path>
        <path d="M133.166802,218 L181.213001,218 C187.603482,218 190,212.880227 190,208.557049 C190,204.23387 187.717237,199 181.213001,199 L128.373767,199 C114.678583,199 110,203.89297 110,216.975906 L110,218 L133.166802,218 Z" id="c-7-2" fill="#FFFFFF" transform="translate(150.000000, 208.500000) scale(-1, 1) translate(-150.000000, -208.500000) "></path>
        <rect id="c-8-2" fill="#FFFFFF" transform="translate(178.500000, 232.500000) scale(-1, 1) translate(-178.500000, -232.500000) " x="167" y="217.9" width="23" height="29.2"></rect>
        <path d="M206,247.91003 C206,261.107547 210.632314,266 224.192057,266 L277.18589,266 C283.401233,266 286,260.766634 286,256.443297 C286,252.235454 283.516627,247.00487 277.195564,247 L206,247 L206,247.91003 Z" id="c-9-3" fill="#FFFFFF" transform="translate(246.000000, 256.500000) scale(-1, 1) translate(-246.000000, -256.500000) "></path>
        <path d="M229.166802,218 L277.213001,218 C283.603482,218 286,212.880227 286,208.557049 C286,204.23387 283.717237,199 277.213001,199 L224.373767,199 C210.678583,199 206,203.89297 206,216.975906 L206,218 L229.166802,218 Z" id="c-7-3" fill="#FFFFFF" transform="translate(246.000000, 208.500000) scale(-1, 1) translate(-246.000000, -208.500000) "></path>
        <rect id="c-8-3" fill="#FFFFFF" transform="translate(274.500000, 232.500000) scale(-1, 1) translate(-274.500000, -232.500000) " x="263" y="217.9" width="23" height="29.2"></rect>
        <path d="M14,247.91003 C14,261.107547 18.6323136,266 32.1920572,266 L85.1858902,266 C91.4012334,266 94,260.766634 94,256.443297 C94,252.235454 91.5166266,247.00487 85.1955639,247 L14,247 L14,247.91003 Z" id="c-9-1" fill="#FFFFFF" transform="translate(54.000000, 256.500000) scale(-1, 1) translate(-54.000000, -256.500000) "></path>
        <path d="M37.1668019,218 L85.2130015,218 C91.6034824,218 94,212.880227 94,208.557049 C94,204.23387 91.7172367,199 85.2130015,199 L32.3737667,199 C18.678583,199 14,203.89297 14,216.975906 L14,218 L37.1668019,218 Z" id="c-7-1" fill="#FFFFFF" transform="translate(54.000000, 208.500000) scale(-1, 1) translate(-54.000000, -208.500000) "></path>
        <rect id="c-8-1" fill="#FFFFFF" transform="translate(82.500000, 232.500000) scale(-1, 1) translate(-82.500000, -232.500000) " x="71" y="217.9" width="23" height="29.2"></rect>
        <path d="M110,81.9100297 C110,95.107547 114.632314,100 128.192057,100 L181.18589,100 C187.401233,100 190,94.7666337 190,90.4432971 C190,86.2354535 187.516627,81.0048702 181.195564,81 L110,81 L110,81.9100297 Z" id="c-3-2" fill="#FFFFFF" transform="translate(150.000000, 90.500000) scale(-1, 1) translate(-150.000000, -90.500000) "></path>
        <path d="M133.166802,52 L181.213001,52 C187.603482,52 190,46.880227 190,42.5570487 C190,38.2338704 187.717237,33 181.213001,33 L128.373767,33 C114.678583,33 110,37.8929696 110,50.9759063 L110,52 L133.166802,52 Z" id="c-1-2" fill="#FFFFFF" transform="translate(150.000000, 42.500000) scale(-1, 1) translate(-150.000000, -42.500000) "></path>
        <rect id="c-2-2" fill="#FFFFFF" transform="translate(178.500000, 66.500000) scale(-1, 1) translate(-178.500000, -66.500000) " x="167" y="51.9" width="23" height="29.2"></rect>
        <path d="M206,81.9100297 C206,95.107547 210.632314,100 224.192057,100 L277.18589,100 C283.401233,100 286,94.7666337 286,90.4432971 C286,86.2354535 283.516627,81.0048702 277.195564,81 L206,81 L206,81.9100297 Z" id="c-3-3" fill="#FFFFFF" transform="translate(246.000000, 90.500000) scale(-1, 1) translate(-246.000000, -90.500000) "></path>
        <path d="M229.166802,52 L277.213001,52 C283.603482,52 286,46.880227 286,42.5570487 C286,38.2338704 283.717237,33 277.213001,33 L224.373767,33 C210.678583,33 206,37.8929696 206,50.9759063 L206,52 L229.166802,52 Z" id="c-1-3" fill="#FFFFFF" transform="translate(246.000000, 42.500000) scale(-1, 1) translate(-246.000000, -42.500000) "></path>
        <rect id="c-2-3" fill="#FFFFFF" transform="translate(274.500000, 66.500000) scale(-1, 1) translate(-274.500000, -66.500000) " x="263" y="51.9" width="23" height="29.2"></rect>
        <path d="M14,81.9100297 C14,95.107547 18.6323136,100 32.1920572,100 L85.1858902,100 C91.4012334,100 94,94.7666337 94,90.4432971 C94,86.2354535 91.5166266,81.0048702 85.1955639,81 L14,81 L14,81.9100297 Z" id="c-3-1" fill="#FFFFFF" transform="translate(54.000000, 90.500000) scale(-1, 1) translate(-54.000000, -90.500000) "></path>
        <path d="M37.1668019,52 L85.2130015,52 C91.6034824,52 94,46.880227 94,42.5570487 C94,38.2338704 91.7172367,33 85.2130015,33 L32.3737667,33 C18.678583,33 14,37.8929696 14,50.9759063 L14,52 L37.1668019,52 Z" id="c-1-1" fill="#FFFFFF" transform="translate(54.000000, 42.500000) scale(-1, 1) translate(-54.000000, -42.500000) "></path>
        <rect id="c-2-1" fill="#FFFFFF" transform="translate(82.500000, 66.500000) scale(-1, 1) translate(-82.500000, -66.500000) " x="71" y="51.9" width="23" height="29.2"></rect>
    </g>
</svg>