<?xml version="1.0" encoding="UTF-8"?>
<svg width="300px" height="300px" viewBox="0 0 300 300" version="1.1" xmlns="http://www.w3.org/2000/svg" xmlns:xlink="http://www.w3.org/1999/xlink">
    <!-- Generator: Sketch 53.2 (72643) - https://sketchapp.com -->
    <title>alphabet h copy 4</title>
    <desc>Created with Sketch.</desc>
    <g id="alphabet-h-copy-4" stroke="none" stroke-width="1" fill="none" fill-rule="evenodd">
        <rect id="Rectangle-Copy-11" fill="#50E3C2" x="1" y="31" width="28" height="28"></rect>
        <rect id="Rectangle-Copy-12" fill="#50E3C2" x="1" y="1" width="28" height="28"></rect>
        <rect id="Rectangle-Copy-16" fill="#50E3C2" x="1" y="91" width="28" height="28"></rect>
        <rect id="Rectangle-Copy-15" fill="#50E3C2" x="1" y="61" width="28" height="28"></rect>
        <rect id="Rectangle-Copy-20" fill="#50E3C2" x="1" y="151" width="28" height="28"></rect>
        <rect id="Rectangle-Copy-19" fill="#50E3C2" x="1" y="121" width="28" height="28"></rect>
        <rect id="Rectangle-Copy-59" fill="#50E3C2" x="1" y="151" width="28" height="28"></rect>
        <rect id="Rectangle-Copy-80" fill="#50E3C2" x="1" y="181" width="28" height="28"></rect>
        <rect id="Rectangle-Copy-70" fill="#50E3C2" x="1" y="181" width="28" height="28"></rect>
        <rect id="Rectangle-Copy-102" fill="#50E3C2" x="1" y="211" width="28" height="28"></rect>
        <rect id="Rectangle-Copy-91" fill="#50E3C2" x="1" y="271" width="28" height="28"></rect>
        <rect id="Rectangle-Copy-124" fill="#50E3C2" x="1" y="241" width="28" height="28"></rect>
        <rect id="Rectangle-Copy-113" fill="#50E3C2" x="1" y="241" width="28" height="28"></rect>
        <rect id="Rectangle-Copy-14" fill="#50E3C2" x="31" y="31" width="28" height="28"></rect>
        <rect id="Rectangle-Copy-13" fill="#50E3C2" x="31" y="1" width="28" height="28"></rect>
        <rect id="Rectangle-Copy-18" fill="#50E3C2" x="31" y="91" width="28" height="28"></rect>
        <rect id="Rectangle-Copy-17" fill="#50E3C2" x="31" y="61" width="28" height="28"></rect>
        <rect id="Rectangle-Copy-22" fill="#50E3C2" x="31" y="151" width="28" height="28"></rect>
        <rect id="Rectangle-Copy-21" fill="#50E3C2" x="31" y="121" width="28" height="28"></rect>
        <rect id="Rectangle-Copy-60" fill="#50E3C2" x="31" y="151" width="28" height="28"></rect>
        <rect id="Rectangle-Copy-81" fill="#50E3C2" x="31" y="181" width="28" height="28"></rect>
        <rect id="Rectangle-Copy-71" fill="#50E3C2" x="31" y="181" width="28" height="28"></rect>
        <rect id="Rectangle-Copy-103" fill="#50E3C2" x="31" y="211" width="28" height="28"></rect>
        <rect id="Rectangle-Copy-92" fill="#50E3C2" x="31" y="271" width="28" height="28"></rect>
        <rect id="Rectangle-Copy-125" fill="#50E3C2" x="31" y="241" width="28" height="28"></rect>
        <rect id="Rectangle-Copy-114" fill="#50E3C2" x="31" y="241" width="28" height="28"></rect>
        <rect id="Rectangle-Copy-33" fill="#50E3C2" x="61" y="1" width="28" height="28"></rect>
        <rect id="Rectangle-Copy-94" fill="#50E3C2" x="61" y="271" width="28" height="28"></rect>
        <rect id="Rectangle-Copy-27" fill="#50E3C2" x="91" y="1" width="28" height="28"></rect>
        <rect id="Rectangle-Copy-93" fill="#50E3C2" x="91" y="271" width="28" height="28"></rect>
        <rect id="Rectangle-Copy-58" fill="#50E3C2" x="121" y="31" width="28" height="28"></rect>
        <rect id="Rectangle-Copy-57" fill="#50E3C2" x="121" y="1" width="28" height="28"></rect>
        <rect id="Rectangle-Copy-55" fill="#50E3C2" x="121" y="61" width="28" height="28"></rect>
        <rect id="Rectangle-Copy-66" fill="#50E3C2" x="121" y="151" width="28" height="28"></rect>
        <rect id="Rectangle-Copy-77" fill="#50E3C2" x="121" y="181" width="28" height="28"></rect>
        <rect id="Rectangle-Copy-98" fill="#50E3C2" x="121" y="271" width="28" height="28"></rect>
        <rect id="Rectangle-Copy-52" fill="#50E3C2" x="151" y="31" width="28" height="28"></rect>
        <rect id="Rectangle-Copy-51" fill="#50E3C2" x="151" y="1" width="28" height="28"></rect>
        <rect id="Rectangle-Copy-49" fill="#50E3C2" x="151" y="61" width="28" height="28"></rect>
        <rect id="Rectangle-Copy-65" fill="#50E3C2" x="151" y="151" width="28" height="28"></rect>
        <rect id="Rectangle-Copy-76" fill="#50E3C2" x="151" y="181" width="28" height="28"></rect>
        <rect id="Rectangle-Copy-97" fill="#50E3C2" x="151" y="271" width="28" height="28"></rect>
        <rect id="Rectangle-Copy-45" fill="#50E3C2" x="181" y="1" width="28" height="28"></rect>
        <rect id="Rectangle-Copy-96" fill="#50E3C2" x="181" y="271" width="28" height="28"></rect>
        <rect id="Rectangle-Copy-39" fill="#50E3C2" x="211" y="1" width="28" height="28"></rect>
        <rect id="Rectangle-Copy-95" fill="#50E3C2" x="211" y="271" width="28" height="28"></rect>
        <rect id="Rectangle-Copy-140" fill="#50E3C2" x="241" y="31" width="28" height="28"></rect>
        <rect id="Rectangle-Copy-139" fill="#50E3C2" x="241" y="1" width="28" height="28"></rect>
        <rect id="Rectangle-Copy-138" fill="#50E3C2" x="241" y="91" width="28" height="28"></rect>
        <rect id="Rectangle-Copy-137" fill="#50E3C2" x="241" y="61" width="28" height="28"></rect>
        <rect id="Rectangle-Copy-136" fill="#50E3C2" x="241" y="151" width="28" height="28"></rect>
        <rect id="Rectangle-Copy-135" fill="#50E3C2" x="241" y="121" width="28" height="28"></rect>
        <rect id="Rectangle-Copy-134" fill="#50E3C2" x="241" y="151" width="28" height="28"></rect>
        <rect id="Rectangle-Copy-123" fill="#50E3C2" x="241" y="181" width="28" height="28"></rect>
        <rect id="Rectangle-Copy-112" fill="#50E3C2" x="241" y="181" width="28" height="28"></rect>
        <rect id="Rectangle-Copy-111" fill="#50E3C2" x="241" y="211" width="28" height="28"></rect>
        <rect id="Rectangle-Copy-101" fill="#50E3C2" x="241" y="271" width="28" height="28"></rect>
        <rect id="Rectangle-Copy-133" fill="#50E3C2" x="241" y="241" width="28" height="28"></rect>
        <rect id="Rectangle-Copy-122" fill="#50E3C2" x="241" y="241" width="28" height="28"></rect>
        <rect id="Rectangle-Copy-100" fill="#50E3C2" x="271" y="31" width="28" height="28"></rect>
        <rect id="Rectangle-Copy-90" fill="#50E3C2" x="271" y="1" width="28" height="28"></rect>
        <rect id="Rectangle-Copy-89" fill="#50E3C2" x="271" y="91" width="28" height="28"></rect>
        <rect id="Rectangle-Copy-79" fill="#50E3C2" x="271" y="61" width="28" height="28"></rect>
        <rect id="Rectangle-Copy-69" fill="#50E3C2" x="271" y="151" width="28" height="28"></rect>
        <rect id="Rectangle-Copy-68" fill="#50E3C2" x="271" y="121" width="28" height="28"></rect>
        <rect id="Rectangle-Copy-67" fill="#50E3C2" x="271" y="151" width="28" height="28"></rect>
        <rect id="Rectangle-Copy-88" fill="#50E3C2" x="271" y="181" width="28" height="28"></rect>
        <rect id="Rectangle-Copy-78" fill="#50E3C2" x="271" y="181" width="28" height="28"></rect>
        <rect id="Rectangle-Copy-110" fill="#50E3C2" x="271" y="211" width="28" height="28"></rect>
        <rect id="Rectangle-Copy-99" fill="#50E3C2" x="271" y="271" width="28" height="28"></rect>
        <rect id="Rectangle-Copy-132" fill="#50E3C2" x="271" y="241" width="28" height="28"></rect>
        <rect id="Rectangle-Copy-121" fill="#50E3C2" x="271" y="241" width="28" height="28"></rect>
        <rect id="Rectangle-Copy-34" fill="#FC1156" x="61" y="31" width="28" height="28"></rect>
        <rect id="Rectangle-Copy-32" fill="#FC1156" x="61" y="91" width="28" height="28"></rect>
        <rect id="Rectangle-Copy-31" fill="#FC1156" x="61" y="61" width="28" height="28"></rect>
        <rect id="Rectangle-Copy-30" fill="#FC1156" x="61" y="151" width="28" height="28"></rect>
        <rect id="Rectangle-Copy-29" fill="#FC1156" x="61" y="121" width="28" height="28"></rect>
        <rect id="Rectangle-Copy-62" fill="#FC1156" x="61" y="151" width="28" height="28"></rect>
        <rect id="Rectangle-Copy-83" fill="#FC1156" x="61" y="181" width="28" height="28"></rect>
        <rect id="Rectangle-Copy-73" fill="#FC1156" x="61" y="181" width="28" height="28"></rect>
        <rect id="Rectangle-Copy-105" fill="#FC1156" x="61" y="211" width="28" height="28"></rect>
        <rect id="Rectangle-Copy-127" fill="#FC1156" x="61" y="241" width="28" height="28"></rect>
        <rect id="Rectangle-Copy-116" fill="#FC1156" x="61" y="241" width="28" height="28"></rect>
        <rect id="Rectangle-Copy-28" fill="#FC1156" x="91" y="31" width="28" height="28"></rect>
        <rect id="Rectangle-Copy-26" fill="#FC1156" x="91" y="91" width="28" height="28"></rect>
        <rect id="Rectangle-Copy-25" fill="#FC1156" x="91" y="61" width="28" height="28"></rect>
        <rect id="Rectangle-Copy-24" fill="#FC1156" x="91" y="151" width="28" height="28"></rect>
        <rect id="Rectangle-Copy-23" fill="#FC1156" x="91" y="121" width="28" height="28"></rect>
        <rect id="Rectangle-Copy-61" fill="#FC1156" x="91" y="151" width="28" height="28"></rect>
        <rect id="Rectangle-Copy-82" fill="#FC1156" x="91" y="181" width="28" height="28"></rect>
        <rect id="Rectangle-Copy-72" fill="#FC1156" x="91" y="181" width="28" height="28"></rect>
        <rect id="Rectangle-Copy-104" fill="#FC1156" x="91" y="211" width="28" height="28"></rect>
        <rect id="Rectangle-Copy-126" fill="#FC1156" x="91" y="241" width="28" height="28"></rect>
        <rect id="Rectangle-Copy-115" fill="#FC1156" x="91" y="241" width="28" height="28"></rect>
        <rect id="Rectangle-Copy-56" fill="#FC1156" x="121" y="91" width="28" height="28"></rect>
        <rect id="Rectangle-Copy-53" fill="#FC1156" x="121" y="121" width="28" height="28"></rect>
        <rect id="Rectangle-Copy-109" fill="#FC1156" x="121" y="211" width="28" height="28"></rect>
        <rect id="Rectangle-Copy-131" fill="#FC1156" x="121" y="241" width="28" height="28"></rect>
        <rect id="Rectangle-Copy-120" fill="#FC1156" x="121" y="241" width="28" height="28"></rect>
        <rect id="Rectangle-Copy-50" fill="#FC1156" x="151" y="91" width="28" height="28"></rect>
        <rect id="Rectangle-Copy-47" fill="#FC1156" x="151" y="121" width="28" height="28"></rect>
        <rect id="Rectangle-Copy-108" fill="#FC1156" x="151" y="211" width="28" height="28"></rect>
        <rect id="Rectangle-Copy-130" fill="#FC1156" x="151" y="241" width="28" height="28"></rect>
        <rect id="Rectangle-Copy-119" fill="#FC1156" x="151" y="241" width="28" height="28"></rect>
        <rect id="Rectangle-Copy-46" fill="#FC1156" x="181" y="31" width="28" height="28"></rect>
        <rect id="Rectangle-Copy-44" fill="#FC1156" x="181" y="91" width="28" height="28"></rect>
        <rect id="Rectangle-Copy-43" fill="#FC1156" x="181" y="61" width="28" height="28"></rect>
        <rect id="Rectangle-Copy-42" fill="#FC1156" x="181" y="151" width="28" height="28"></rect>
        <rect id="Rectangle-Copy-41" fill="#FC1156" x="181" y="121" width="28" height="28"></rect>
        <rect id="Rectangle-Copy-64" fill="#FC1156" x="181" y="151" width="28" height="28"></rect>
        <rect id="Rectangle-Copy-85" fill="#FC1156" x="181" y="181" width="28" height="28"></rect>
        <rect id="Rectangle-Copy-75" fill="#FC1156" x="181" y="181" width="28" height="28"></rect>
        <rect id="Rectangle-Copy-107" fill="#FC1156" x="181" y="211" width="28" height="28"></rect>
        <rect id="Rectangle-Copy-129" fill="#FC1156" x="181" y="241" width="28" height="28"></rect>
        <rect id="Rectangle-Copy-118" fill="#FC1156" x="181" y="241" width="28" height="28"></rect>
        <rect id="Rectangle-Copy-40" fill="#FC1156" x="211" y="31" width="28" height="28"></rect>
        <rect id="Rectangle-Copy-38" fill="#FC1156" x="211" y="91" width="28" height="28"></rect>
        <rect id="Rectangle-Copy-37" fill="#FC1156" x="211" y="61" width="28" height="28"></rect>
        <rect id="Rectangle-Copy-36" fill="#FC1156" x="211" y="151" width="28" height="28"></rect>
        <rect id="Rectangle-Copy-35" fill="#FC1156" x="211" y="121" width="28" height="28"></rect>
        <rect id="Rectangle-Copy-63" fill="#FC1156" x="211" y="151" width="28" height="28"></rect>
        <rect id="Rectangle-Copy-84" fill="#FC1156" x="211" y="181" width="28" height="28"></rect>
        <rect id="Rectangle-Copy-74" fill="#FC1156" x="211" y="181" width="28" height="28"></rect>
        <rect id="Rectangle-Copy-106" fill="#FC1156" x="211" y="211" width="28" height="28"></rect>
        <rect id="Rectangle-Copy-128" fill="#FC1156" x="211" y="241" width="28" height="28"></rect>
        <rect id="Rectangle-Copy-117" fill="#FC1156" x="211" y="241" width="28" height="28"></rect>
    </g>
</svg>