<?xml version="1.0" encoding="UTF-8"?>
<svg width="300px" height="300px" viewBox="0 0 300 300" version="1.1" xmlns="http://www.w3.org/2000/svg" xmlns:xlink="http://www.w3.org/1999/xlink">
    <!-- Generator: Sketch 53.2 (72643) - https://sketchapp.com -->
    <title>Artboard</title>
    <desc>Created with Sketch.</desc>
    <g id="Artboard" stroke="none" stroke-width="1" fill="none" fill-rule="evenodd">
        <path d="M177.346062,156.877872 C223.866536,157.789569 259.135854,185.699309 264,247.891675 L204.103375,247.891675 C199.238227,219.072237 184.340214,203.295471 156.063043,200.868277 C125.426686,196.731659 119.450718,185.177137 124.217577,174.024246 C128.984437,162.871355 156.063043,156.877872 177.346062,156.877872 Z" id="Fill-1-Copy-2" fill="#0A00D6"></path>
        <path d="M180.082207,135.339018 C179.778636,142.923502 178.866922,149.900187 177.346062,156.877872 C174.235271,167.36456 173.271118,169.219524 170.665669,171.906908 C162.477321,180.352758 147.678704,190.884727 131.955635,186.609642 C118.368701,182.91537 108.227312,171.400287 112.31571,160.223931 C112.958487,158.466787 117.951521,141.862285 118.360149,135.339018 L65.7602444,135.339018 C47.5159391,135.339018 40.2192189,122.901145 40.2192189,110.461272 C40.2192189,98.3262981 47.2123683,85.5845255 65.7602444,85.5845255 L117.144864,85.5845255 L117.144864,81.0340353 C117.144864,61.618477 129.914876,51 149.678037,51 C169.441198,51 182.21121,61.9213765 182.21121,81.0340353 L182.21121,85.5845255 L233.59583,85.5845255 C252.141703,85.5845255 259.135854,98.3262981 259.135854,110.461272 C259.135854,122.901145 251.838132,135.339018 233.59583,135.339018 L180.082207,135.339018 Z" id="Fill-1" fill="#0A00D6"></path>
        <path d="M163.441304,183.87283 C162.404425,190.352196 158.627037,197.476133 156.063043,200.868277 C133.259164,229.689714 98.5969882,245.46548 68.4963892,247.891675 C51.7739455,249.106272 38.0902156,240.004292 36.266787,225.746023 C34.4423565,212.396452 42.0446513,200.565377 56.9416625,198.137183 C77.4980924,194.982748 96.2555035,185.801895 107.534001,169.094577 C113.604944,160.101431 135.689091,149.743799 147.923177,155.952902 C160.157263,162.162004 164.478184,177.393463 163.441304,183.87283 Z" id="Fill-1-Copy" fill="#C9C9C9"></path>
        <circle id="Oval" fill="#FFFFFF" cx="247" cy="61" r="44"></circle>
    </g>
</svg>