<?xml version="1.0" encoding="UTF-8"?>
<svg width="300px" height="300px" viewBox="0 0 300 300" version="1.1" xmlns="http://www.w3.org/2000/svg" xmlns:xlink="http://www.w3.org/1999/xlink">
    <!-- Generator: Sketch 53.2 (72643) - https://sketchapp.com -->
    <title>Artboard</title>
    <desc>Created with Sketch.</desc>
    <g id="Artboard" stroke="none" stroke-width="1" fill="none" fill-rule="evenodd">
        <path d="M125.995,102.508 L174.696,102.508 L174.696,197.492 L125.995,197.492 L125.995,102.508 Z" id="Path-2" stroke="#FFFFFF" stroke-width="4"></path>
        <path d="M115.995,92.508 L184.695,92.508 L184.695,207.492 L115.995,207.492 L115.995,92.508 Z" id="Path-3" stroke="#FFFFFF" stroke-width="4"></path>
        <path d="M105.995,82.508 L194.695,82.508 L194.695,217.492 L105.995,217.492 L105.995,82.508 Z" id="Path-4" stroke="#FFFFFF" stroke-width="4"></path>
        <path d="M96.021,82.508 L59.647,82.508 L59.647,72.534 L240.353,72.534 L240.353,82.508 L204.669,82.508 L204.669,217.492 L240.353,217.492 L240.353,227.466 L59.647,227.466 L59.647,217.492 L96.021,217.492 L96.021,82.508 Z" id="Path-5" stroke="#FFFFFF" stroke-width="4"></path>
        <path d="M86.021,92.508 L49.647,92.508 L49.647,62.534 L250.353,62.534 L250.353,92.508 L214.669,92.508 L214.669,207.492 L250.353,207.492 L250.353,237.466 L49.647,237.466 L49.647,207.492 L86.021,207.492 L86.021,92.508 Z" id="Path-6" stroke="#FFFFFF" stroke-width="4"></path>
        <path d="M76.021,102.508 L39.647,102.508 L39.647,52.534 L260.353,52.534 L260.353,102.508 L224.669,102.508 L224.669,197.492 L260.353,197.492 L260.353,247.466 L39.647,247.466 L39.647,197.492 L76.021,197.492 L76.021,102.508 Z" id="Path-7" stroke="#FFFFFF" stroke-width="4"></path>
    </g>
</svg>