<?xml version="1.0" encoding="UTF-8"?>
<svg width="300px" height="300px" viewBox="0 0 300 300" version="1.1" xmlns="http://www.w3.org/2000/svg" xmlns:xlink="http://www.w3.org/1999/xlink">
    <!-- Generator: Sketch 53.2 (72643) - https://sketchapp.com -->
    <title>Artboard Copy 5</title>
    <desc>Created with Sketch.</desc>
    <g id="Artboard-Copy-5" stroke="none" stroke-width="1" fill="none" fill-rule="evenodd">
        <polyline id="alphabet-wa-11" fill="#000000" points="150.1995 127.2493 104.1995 127.2493 104.1995 81.2493"></polyline>
        <polyline id="alphabet-wa-10" fill="#000000" points="150.1995 173.1497 104.1995 173.1497 104.1995 127.1497"></polyline>
        <polyline id="alphabet-wa-9" fill="#000000" points="150.1995 219.0501 104.1995 219.0501 104.1995 173.0501"></polyline>
        <polyline id="alphabet-wa-8" fill="#000000" points="150.1995 264.9505 104.1995 264.9505 104.1995 218.9505"></polyline>
        <polyline id="alphabet-wa-7" fill="#000000" points="150.1995 310.8509 104.1995 310.8509 104.1995 264.8509"></polyline>
        <polyline id="alphabet-wa-6" fill="#000000" points="242.0003 127.2493 196.0003 127.2493 196.0003 81.2493"></polyline>
        <polyline id="alphabet-wa-5" fill="#000000" points="196.0999 219.0501 150.0999 219.0501 150.0999 173.0501"></polyline>
        <polyline id="alphabet-wa-4" fill="#000000" points="287.6355 127.2493 241.6355 127.2493 241.6355 81.2493"></polyline>
        <polyline id="alphabet-wa-3" fill="#000000" points="196.0999 310.8509 150.0999 310.8509 150.0999 264.8509"></polyline>
        <polyline id="alphabet-wa-2" fill="#000000" points="242.0003 310.8509 196.0003 310.8509 196.0003 264.8509"></polyline>
        <polyline id="alphabet-wa-1" fill="#000000" points="287.9006 310.8509 241.9006 310.8509 241.9006 264.8509"></polyline>
        <polyline id="alphabet-wb-11" fill="#000000" points="12.1996 35.2494 58.1996 35.2494 58.1996 81.2494"></polyline>
        <polyline id="alphabet-wb-10" fill="#000000" points="12.1996 127.0497 58.1996 127.0497 58.1996 173.0497"></polyline>
        <polyline id="alphabet-wb-9" fill="#000000" points="12.1996 172.9501 58.1996 172.9501 58.1996 218.9501"></polyline>
        <polyline id="alphabet-wb-8" fill="#000000" points="12.1996 218.8505 58.1996 218.8505 58.1996 264.8505"></polyline>
        <polyline id="alphabet-wb-7" fill="#000000" points="12.1996 81.1493 58.1996 81.1493 58.1996 127.1493"></polyline>
        <polyline id="alphabet-wb-6" fill="#000000" points="103.9999 35.2494 149.9999 35.2494 149.9999 81.2494"></polyline>
        <polyline id="alphabet-wb-5" fill="#000000" points="149.6351 35.2494 195.6351 35.2494 195.6351 81.2494"></polyline>
        <polyline id="alphabet-wb-4" fill="#000000" points="58.0995 127.0497 104.0995 127.0497 104.0995 173.0497"></polyline>
        <polyline id="alphabet-wb-3" fill="#000000" points="58.0995 218.8505 104.0995 218.8505 104.0995 264.8505"></polyline>
        <polyline id="alphabet-wb-2" fill="#000000" points="103.9999 218.8505 149.9999 218.8505 149.9999 264.8505"></polyline>
        <polyline id="alphabet-wb-1" fill="#000000" points="149.9003 218.8505 195.9003 218.8505 195.9003 264.8505"></polyline>
        <polyline id="alphabet-wc-3" fill="#000000" points="241.6355 173.0497 241.6355 219.0497 195.6355 219.0497"></polyline>
        <polyline id="alphabet-wc-2" fill="#000000" points="150.0999 81.2494 150.0999 127.2494 104.0999 127.2494"></polyline>
        <polyline id="alphabet-wc-1" fill="#000000" points="196.0003 173.0497 196.0003 219.0497 150.0003 219.0497"></polyline>
        <polyline id="alphabet-wd-3" fill="#000000" points="241.9003 127.0501 241.9003 81.0501 287.9003 81.0501"></polyline>
        <polyline id="alphabet-wd-2" fill="#000000" points="195.9999 127.0501 195.9999 81.0501 241.9999 81.0501"></polyline>
        <polyline id="alphabet-wd-1" fill="#000000" points="150.0995 35.2493 150.0995 -10.7507 196.0995 -10.7507"></polyline>
    </g>
</svg>