<?xml version="1.0" encoding="UTF-8"?>
<svg width="300px" height="300px" viewBox="0 0 300 300" version="1.1" xmlns="http://www.w3.org/2000/svg" xmlns:xlink="http://www.w3.org/1999/xlink">
    <!-- Generator: Sketch 54.1 (76490) - https://sketchapp.com -->
    <title>Artboard</title>
    <desc>Created with Sketch.</desc>
    <g id="Artboard" stroke="none" stroke-width="1" fill="none" fill-rule="evenodd">
        <polygon id="Fill-1" fill="#FF553E" points="50 75 75 75 75 50 50 50"></polygon>
        <polygon id="Fill-2" fill="#FF553E" points="50 100 75 100 75 75 50 75"></polygon>
        <polygon id="Fill-3" fill="#FF553E" points="50 125 75 125 75 100 50 100"></polygon>
        <polygon id="Fill-4" fill="#FF553E" points="50 150 75 150 75 125 50 125"></polygon>
        <polygon id="Fill-5" fill="#FF553E" points="50 175 75 175 75 150 50 150"></polygon>
        <polygon id="Fill-6" fill="#FF553E" points="50 200 75 200 75 175 50 175"></polygon>
        <polygon id="Fill-7" fill="#FF553E" points="50 225 75 225 75 200 50 200"></polygon>
        <polygon id="Fill-8" fill="#FF553E" points="50 250 75 250 75 225 50 225"></polygon>
        <polygon id="Fill-9" fill="#FF553E" points="75 75 100 75 100 50 75 50"></polygon>
        <polygon id="Fill-10" fill="#FF553E" points="75 100 100 100 100 75 75 75"></polygon>
        <polygon id="Fill-11" fill="#FF553E" points="75 125 100 125 100 100 75 100"></polygon>
        <polygon id="Fill-12" fill="#FF553E" points="75 150 100 150 100 125 75 125"></polygon>
        <polygon id="Fill-13" fill="#FF553E" points="75 175 100 175 100 150 75 150"></polygon>
        <polygon id="Fill-14" fill="#FF553E" points="75 200 100 200 100 175 75 175"></polygon>
        <polygon id="Fill-15" fill="#FF553E" points="75 225 100 225 100 200 75 200"></polygon>
        <polygon id="Fill-16" fill="#FF553E" points="75 250 100 250 100 225 75 225"></polygon>
        <polygon id="Fill-17" fill="#FF553E" points="100 125 125 125 125 100 100 100"></polygon>
        <polygon id="Fill-18" fill="#FF553E" points="100 150 125 150 125 125 100 125"></polygon>
        <polygon id="Fill-19" fill="#FF553E" points="100 225 125 225 125 200 100 200"></polygon>
        <polygon id="Fill-20" fill="#FF553E" points="100 250 125 250 125 225 100 225"></polygon>
        <polygon id="Fill-21" fill="#FF553E" points="125 125 150 125 150 100 125 100"></polygon>
        <polygon id="Fill-22" fill="#FF553E" points="125 150 150 150 150 125 125 125"></polygon>
        <polygon id="Fill-23" fill="#FF553E" points="125 225 150 225 150 200 125 200"></polygon>
        <polygon id="Fill-24" fill="#FF553E" points="125 250 150 250 150 225 125 225"></polygon>
        <polygon id="Fill-25" fill="#FF553E" points="150 125 175 125 175 100 150 100"></polygon>
        <polygon id="Fill-26" fill="#FF553E" points="150 150 175 150 175 125 150 125"></polygon>
        <polygon id="Fill-27" fill="#FF553E" points="150 225 175 225 175 200 150 200"></polygon>
        <polygon id="Fill-28" fill="#FF553E" points="150 250 175 250 175 225 150 225"></polygon>
        <polygon id="Fill-29" fill="#FF553E" points="175 125 200 125 200 100 175 100"></polygon>
        <polygon id="Fill-30" fill="#FF553E" points="175 150 200 150 200 125 175 125"></polygon>
        <polygon id="Fill-31" fill="#FF553E" points="175 225 200 225 200 200 175 200"></polygon>
        <polygon id="Fill-32" fill="#FF553E" points="175 250 200 250 200 225 175 225"></polygon>
        <polygon id="Fill-33" fill="#FF553E" points="200 75 225 75 225 50 200 50"></polygon>
        <polygon id="Fill-34" fill="#FF553E" points="200 100 225 100 225 75 200 75"></polygon>
        <polygon id="Fill-35" fill="#FF553E" points="200 125 225 125 225 100 200 100"></polygon>
        <polygon id="Fill-36" fill="#FF553E" points="200 150 225 150 225 125 200 125"></polygon>
        <polygon id="Fill-37" fill="#FF553E" points="200 175 225 175 225 150 200 150"></polygon>
        <polygon id="Fill-38" fill="#FF553E" points="200 200 225 200 225 175 200 175"></polygon>
        <polygon id="Fill-39" fill="#FF553E" points="200 225 225 225 225 200 200 200"></polygon>
        <polygon id="Fill-40" fill="#FF553E" points="200 250 225 250 225 225 200 225"></polygon>
        <polygon id="Fill-41" fill="#FF553E" points="225 75 250 75 250 50 225 50"></polygon>
        <polygon id="Fill-42" fill="#FF553E" points="225 100 250 100 250 75 225 75"></polygon>
        <polygon id="Fill-43" fill="#FF553E" points="225 125 250 125 250 100 225 100"></polygon>
        <polygon id="Fill-44" fill="#FF553E" points="225 150 250 150 250 125 225 125"></polygon>
        <polygon id="Fill-45" fill="#FF553E" points="225 175 250 175 250 150 225 150"></polygon>
        <polygon id="Fill-46" fill="#FF553E" points="225 200 250 200 250 175 225 175"></polygon>
        <polygon id="Fill-47" fill="#FF553E" points="225 225 250 225 250 200 225 200"></polygon>
        <polygon id="Fill-48" fill="#FF553E" points="225 250 250 250 250 225 225 225"></polygon>
        <polygon id="Fill-49" fill="#14037C" points="0 25 25 25 25 0.001 0 0.001"></polygon>
        <polygon id="Fill-50" fill="#14037C" points="0 50 25 50 25 25 0 25"></polygon>
        <polygon id="Fill-51" fill="#14037C" points="0 75 25 75 25 50 0 50"></polygon>
        <polygon id="Fill-52" fill="#14037C" points="0 100 25 100 25 75 0 75"></polygon>
        <polygon id="Fill-53" fill="#14037C" points="0 124.999 25 124.999 25 100 0 100"></polygon>
        <polygon id="Fill-54" fill="#14037C" points="0 150 25 150 25 125 0 125"></polygon>
        <polygon id="Fill-55" fill="#14037C" points="0 175 25 175 25 150 0 150"></polygon>
        <polygon id="Fill-56" fill="#14037C" points="0 200 25 200 25 175 0 175"></polygon>
        <polygon id="Fill-57" fill="#14037C" points="0 224.999 25 224.999 25 200 0 200"></polygon>
        <polygon id="Fill-58" fill="#14037C" points="0 250 25 250 25 225 0 225"></polygon>
        <polygon id="Fill-59" fill="#14037C" points="0 275 25 275 25 250 0 250"></polygon>
        <polygon id="Fill-60" fill="#14037C" points="0 300 25 300 25 275 0 275"></polygon>
        <polygon id="Fill-61" fill="#14037C" points="25 25 49.999 25 49.999 0.001 25 0.001"></polygon>
        <polygon id="Fill-62" fill="#14037C" points="25 50 50 50 50 25 25 25"></polygon>
        <polygon id="Fill-63" fill="#14037C" points="25 75 50 75 50 50 25 50"></polygon>
        <polygon id="Fill-64" fill="#14037C" points="25 100 50 100 50 75 25 75"></polygon>
        <polygon id="Fill-65" fill="#14037C" points="25 125 50 125 50 100 25 100"></polygon>
        <polygon id="Fill-66" fill="#14037C" points="25 150 50 150 50 125 25 125"></polygon>
        <polygon id="Fill-67" fill="#14037C" points="25 175 50 175 50 150 25 150"></polygon>
        <polygon id="Fill-68" fill="#14037C" points="25 200 50 200 50 175 25 175"></polygon>
        <polygon id="Fill-69" fill="#14037C" points="25 225 50 225 50 200 25 200"></polygon>
        <polygon id="Fill-70" fill="#14037C" points="25 250 50 250 50 225 25 225"></polygon>
        <polygon id="Fill-71" fill="#14037C" points="25 275 50 275 50 250 25 250"></polygon>
        <polygon id="Fill-72" fill="#14037C" points="25 300 49.999 300 49.999 275 25 275"></polygon>
        <polygon id="Fill-73" fill="#14037C" points="49.999 25 74.999 25 74.999 0.001 49.999 0.001"></polygon>
        <polygon id="Fill-74" fill="#14037C" points="50 50 75 50 75 25 50 25"></polygon>
        <polygon id="Fill-75" fill="#14037C" points="50 275 75 275 75 250 50 250"></polygon>
        <polygon id="Fill-76" fill="#14037C" points="49.999 300 74.999 300 74.999 275 49.999 275"></polygon>
        <polygon id="Fill-77" fill="#14037C" points="75 25 100 25 100 0.001 75 0.001"></polygon>
        <polygon id="Fill-78" fill="#14037C" points="75 50 100 50 100 25 75 25"></polygon>
        <polygon id="Fill-79" fill="#14037C" points="75 275 100 275 100 250 75 250"></polygon>
        <polygon id="Fill-80" fill="#14037C" points="75 300 100 300 100 275 75 275"></polygon>
        <polygon id="Fill-81" fill="#14037C" points="100 25 125 25 125 0.001 100 0.001"></polygon>
        <polygon id="Fill-82" fill="#14037C" points="100 50 125 50 125 25 100 25"></polygon>
        <polygon id="Fill-83" fill="#14037C" points="100 75 125 75 125 50 100 50"></polygon>
        <polygon id="Fill-84" fill="#14037C" points="100 100 125 100 125 75 100 75"></polygon>
        <polygon id="Fill-85" fill="#14037C" points="100 175 125 175 125 150 100 150"></polygon>
        <polygon id="Fill-86" fill="#14037C" points="100 200 125 200 125 175 100 175"></polygon>
        <polygon id="Fill-87" fill="#14037C" points="100 275 125 275 125 250 100 250"></polygon>
        <polygon id="Fill-88" fill="#14037C" points="100 300 125 300 125 275 100 275"></polygon>
        <polygon id="Fill-89" fill="#14037C" points="125 25 149.999 25 149.999 0.001 125 0.001"></polygon>
        <polygon id="Fill-90" fill="#14037C" points="125 50 150 50 150 25 125 25"></polygon>
        <polygon id="Fill-91" fill="#14037C" points="125 75 150 75 150 50 125 50"></polygon>
        <polygon id="Fill-92" fill="#14037C" points="125 100 150 100 150 75 125 75"></polygon>
        <polygon id="Fill-93" fill="#14037C" points="125 175 150 175 150 150 125 150"></polygon>
        <polygon id="Fill-94" fill="#14037C" points="125 200 150 200 150 175 125 175"></polygon>
        <polygon id="Fill-95" fill="#14037C" points="125 275 150 275 150 250 125 250"></polygon>
        <polygon id="Fill-96" fill="#14037C" points="125 300 149.999 300 149.999 275 125 275"></polygon>
        <polygon id="Fill-97" fill="#14037C" points="149.999 25 174.999 25 174.999 0.001 149.999 0.001"></polygon>
        <polygon id="Fill-98" fill="#14037C" points="150 50 175 50 175 25 150 25"></polygon>
        <polygon id="Fill-99" fill="#14037C" points="150 75 175 75 175 50 150 50"></polygon>
        <polygon id="Fill-100" fill="#14037C" points="150 100 175 100 175 75 150 75"></polygon>
        <polygon id="Fill-101" fill="#14037C" points="150 175 175 175 175 150 150 150"></polygon>
        <polygon id="Fill-102" fill="#14037C" points="150 200 175 200 175 175 150 175"></polygon>
        <polygon id="Fill-103" fill="#14037C" points="150 275 175 275 175 250 150 250"></polygon>
        <polygon id="Fill-104" fill="#14037C" points="149.999 300 174.999 300 174.999 275 149.999 275"></polygon>
        <polygon id="Fill-105" fill="#14037C" points="175 25 200 25 200 0.001 175 0.001"></polygon>
        <polygon id="Fill-106" fill="#14037C" points="175 50 200 50 200 25 175 25"></polygon>
        <polygon id="Fill-107" fill="#14037C" points="175 75 200 75 200 50 175 50"></polygon>
        <polygon id="Fill-108" fill="#14037C" points="175 100 200 100 200 75 175 75"></polygon>
        <polygon id="Fill-109" fill="#14037C" points="175 175 200 175 200 150 175 150"></polygon>
        <polygon id="Fill-110" fill="#14037C" points="175 200 200 200 200 175 175 175"></polygon>
        <polygon id="Fill-111" fill="#14037C" points="175 275 200 275 200 250 175 250"></polygon>
        <polygon id="Fill-112" fill="#14037C" points="175 300 200 300 200 275 175 275"></polygon>
        <polygon id="Fill-113" fill="#14037C" points="200 25 225 25 225 0.001 200 0.001"></polygon>
        <polygon id="Fill-114" fill="#14037C" points="200 50 225 50 225 25 200 25"></polygon>
        <polygon id="Fill-115" fill="#14037C" points="200 275 225 275 225 250 200 250"></polygon>
        <polygon id="Fill-116" fill="#14037C" points="200 300 225 300 225 275 200 275"></polygon>
        <polygon id="Fill-117" fill="#14037C" points="225 25 250 25 250 0.001 225 0.001"></polygon>
        <polygon id="Fill-118" fill="#14037C" points="225 50 250 50 250 25 225 25"></polygon>
        <polygon id="Fill-119" fill="#14037C" points="225 275 250 275 250 250 225 250"></polygon>
        <polygon id="Fill-120" fill="#14037C" points="225 300 250 300 250 275 225 275"></polygon>
        <polygon id="Fill-121" fill="#14037C" points="250 25 274.999 25 274.999 0.001 250 0.001"></polygon>
        <polygon id="Fill-122" fill="#14037C" points="250 50 275 50 275 25 250 25"></polygon>
        <polygon id="Fill-123" fill="#14037C" points="250 75 275 75 275 50 250 50"></polygon>
        <polygon id="Fill-124" fill="#14037C" points="250 100 275 100 275 75 250 75"></polygon>
        <polygon id="Fill-125" fill="#14037C" points="250 125 275 125 275 100 250 100"></polygon>
        <polygon id="Fill-126" fill="#14037C" points="250 150 275 150 275 125 250 125"></polygon>
        <polygon id="Fill-127" fill="#14037C" points="250 175 275 175 275 150 250 150"></polygon>
        <polygon id="Fill-128" fill="#14037C" points="250 200 275 200 275 175 250 175"></polygon>
        <polygon id="Fill-129" fill="#14037C" points="250 225 275 225 275 200 250 200"></polygon>
        <polygon id="Fill-130" fill="#14037C" points="250 250 275 250 275 225 250 225"></polygon>
        <polygon id="Fill-131" fill="#14037C" points="250 275 275 275 275 250 250 250"></polygon>
        <polygon id="Fill-132" fill="#14037C" points="250 300 274.999 300 274.999 275 250 275"></polygon>
        <polygon id="Fill-133" fill="#14037C" points="274.999 25 299.999 25 299.999 0.001 274.999 0.001"></polygon>
        <polygon id="Fill-134" fill="#14037C" points="274.999 50 299.999 50 299.999 25 274.999 25"></polygon>
        <polygon id="Fill-135" fill="#14037C" points="274.999 75 299.999 75 299.999 50 274.999 50"></polygon>
        <polygon id="Fill-136" fill="#14037C" points="274.999 100 299.999 100 299.999 75 274.999 75"></polygon>
        <polygon id="Fill-137" fill="#14037C" points="274.999 124.999 299.999 124.999 299.999 100 274.999 100"></polygon>
        <polygon id="Fill-138" fill="#14037C" points="274.999 150 299.999 150 299.999 125 274.999 125"></polygon>
        <polygon id="Fill-139" fill="#14037C" points="274.999 175 299.999 175 299.999 150 274.999 150"></polygon>
        <polygon id="Fill-140" fill="#14037C" points="274.999 200 299.999 200 299.999 175 274.999 175"></polygon>
        <polygon id="Fill-141" fill="#14037C" points="274.999 224.999 299.999 224.999 299.999 200 274.999 200"></polygon>
        <polygon id="Fill-142" fill="#14037C" points="274.999 250 299.999 250 299.999 225 274.999 225"></polygon>
        <polygon id="Fill-143" fill="#14037C" points="274.999 275 299.999 275 299.999 250 274.999 250"></polygon>
        <polygon id="Fill-144" fill="#14037C" points="274.999 300 299.999 300 299.999 275 274.999 275"></polygon>
    </g>
</svg>