<?xml version="1.0" encoding="UTF-8"?>
<svg width="300px" height="300px" viewBox="0 0 300 300" version="1.1" xmlns="http://www.w3.org/2000/svg" xmlns:xlink="http://www.w3.org/1999/xlink">
    <!-- Generator: Sketch 54.1 (76490) - https://sketchapp.com -->
    <title>Artboard Copy 2</title>
    <desc>Created with Sketch.</desc>
    <g id="Artboard-Copy-2" stroke="none" stroke-width="1" fill="none" fill-rule="evenodd">
        <path d="M213,212.9595 L212.959,213.0005 L171,213.0005 L213,171.0005 L213,212.9595 Z M213,213.0005 L212.959,213.0005 Z M213,128.959 L212.959,129 L171,129 L213,87 L213,128.959 Z M213,129 L212.959,129 Z M255.0088,45 L297.0088,3 L297.0088,45 L255.0088,45 Z M255.0088,129 L297.0088,87 L297.0088,129 L255.0088,129 Z M255.0088,213.0005 L297.0088,171.0005 L297.0088,213.0005 L255.0088,213.0005 Z M129,45 L171,3 L171,45 L129,45 Z M87,129.0005 L129,87.0005 L129,129.0005 L87,129.0005 Z M129,129 L171,87 L171,129 L129,129 Z M87,213.0005 L129,171.0005 L129,213.0005 L87,213.0005 Z M129,213.0005 L171,171.0005 L171,213.0005 L129,213.0005 Z M87,87 L129,45 L129,87 L87,87 Z M87,171.0005 L129,129.0005 L129,171.0005 L87,171.0005 Z M87,45 L129,3 L129,45 L87,45 Z M171,45 L213,3 L213,45 L171,45 Z M213.0088,45 L255.0088,3 L255.0088,45 L213.0088,45 Z" id="Combined-Shape" fill="#000000"></path>
        <path d="M45,87 L3,129 L3,87 L45,87 Z M45,129 L3,171 L3,129 L45,129 Z M45,213.0005 L3,255.0005 L3,213.0005 L45,213.0005 Z M87,87 L45,129 L45,87 L87,87 Z M129,87 L87,129 L87,87 L129,87 Z M171.0088,87 L129.0088,129 L129.0088,87 L171.0088,87 Z M213.0088,87 L171.0088,129 L171.0088,87 L213.0088,87 Z M213.0088,171.0005 L171.0088,213.0005 L171.0088,171.0005 L213.0088,171.0005 Z M213.0088,255.0005 L171.0088,297.0005 L171.0088,255.0005 L213.0088,255.0005 Z M45,171 L3,213 L3,171 L45,171 Z M87,171.0005 L45,213.0005 L45,171.0005 L87,171.0005 Z M129,171.0005 L87,213.0005 L87,171.0005 L129,171.0005 Z M171.0088,171.0005 L129.0088,213.0005 L129.0088,171.0005 L171.0088,171.0005 Z M45,255.0005 L3,297.0005 L3,255.0005 L45,255.0005 Z M87,255.0005 L45,297.0005 L45,255.0005 L87,255.0005 Z M129,255.0005 L87,297.0005 L87,255.0005 L129,255.0005 Z M171.0088,255.0005 L129.0088,297.0005 L129.0088,255.0005 L171.0088,255.0005 Z" id="Combined-Shape" fill="#000000"></path>
        <path d="M213,255.0415 L213,255.0005 L254.959,255.0005 L254.959,297.0005 L213,255.0415 L213,297.0005 L171,255.0005 L212.959,255.0005 Z M213,171.041 L213,171 L254.959,171 L254.959,213 L213,171.041 L213,213 L171,171 L212.959,171 Z M87,87 L129,87 L129,129 L87,87 Z M87,129 L129,129 L129,171 L87,129 Z M87,213.0005 L129,213.0005 L129,255.0005 L87,213.0005 Z M171,87 L213,87 L213,129 L171,87 Z M213.0088,87 L255.0088,87 L255.0088,129 L213.0088,87 Z M255.0088,87 L297.0088,87 L297.0088,129 L255.0088,87 Z M255.0088,171 L297.0088,171 L297.0088,213 L255.0088,171 Z M255.0088,255.0005 L297.0088,255.0005 L297.0088,297.0005 L255.0088,255.0005 Z M129,87 L171,87 L171,129 L129,87 Z M87,171 L129,171 L129,213 L87,171 Z M129,171 L171,171 L171,213 L129,171 Z M87,255.0005 L129,255.0005 L129,297.0005 L87,255.0005 Z M129,255.0005 L171,255.0005 L171,297.0005 L129,255.0005 Z" id="Combined-Shape" fill="#000000"></path>
        <path d="M45,45 L3,45 L3,3 L45,45 Z M45,87 L3,87 L3,45 L45,87 Z M45,171.0005 L3,171.0005 L3,129.0005 L45,171.0005 Z M87,45 L45,45 L45,3 L87,45 Z M129,45 L87,45 L87,3 L129,45 Z M171.0088,45 L129.0088,45 L129.0088,3 L171.0088,45 Z M213.0088,45 L171.0088,45 L171.0088,3 L213.0088,45 Z M213.0088,129.0005 L171.0088,129.0005 L171.0088,87.0005 L213.0088,129.0005 Z M213.0088,213.0005 L171.0088,213.0005 L171.0088,171.0005 L213.0088,213.0005 Z M45,129.0005 L3,129.0005 L3,87.0005 L45,129.0005 Z M87,129.0005 L45,129.0005 L45,87.0005 L87,129.0005 Z M129,129.0005 L87,129.0005 L87,87.0005 L129,129.0005 Z M171.0088,129.0005 L129.0088,129.0005 L129.0088,87.0005 L171.0088,129.0005 Z M45,213.0005 L3,213.0005 L3,171.0005 L45,213.0005 Z M87,213.0005 L45,213.0005 L45,171.0005 L87,213.0005 Z M129,213.0005 L87,213.0005 L87,171.0005 L129,213.0005 Z M171.0088,213.0005 L129.0088,213.0005 L129.0088,171.0005 L171.0088,213.0005 Z" id="Combined-Shape" fill="#000000"></path>
    </g>
</svg>