<?xml version="1.0" encoding="UTF-8"?>
<svg width="300px" height="300px" viewBox="0 0 300 300" version="1.1" xmlns="http://www.w3.org/2000/svg" xmlns:xlink="http://www.w3.org/1999/xlink">
    <!-- Generator: Sketch 54.1 (76490) - https://sketchapp.com -->
    <title>Artboard Copy 3</title>
    <desc>Created with Sketch.</desc>
    <g id="Artboard-Copy-3" stroke="none" stroke-width="1" fill="none" fill-rule="evenodd">
        <polygon id="n-1-1" fill="#F29D46" points="101 68 131 68 101 38 101 53"></polygon>
        <polygon id="n-1-2" fill="#F29D46" points="135 38 165 38 165 68 135 68"></polygon>
        <polygon id="n-1-3" fill="#F29D46" points="169 38 199 68 169 68 184 53 199 38"></polygon>
        <polygon id="n-2-1" fill="#F29D46" points="50 84 80 84 80 114 65 99"></polygon>
        <polyline id="n-2-2" fill="#F29D46" points="84 84 84 114 99.0219535 98.9780465 114 84 114 114"></polyline>
        <polygon id="n-2-3" fill="#F29D46" points="118 84 118 114 148 114 148 84 133 99"></polygon>
        <rect id="n-2-4" fill="#F29D46" x="152" y="84" width="30" height="30" rx="15"></rect>
        <rect id="n-2-5" fill="#F29D46" x="186" y="84" width="30" height="30"></rect>
        <circle id="n-2-6" fill="#F29D46" cx="235" cy="99" r="15"></circle>
        <polygon id="n-3-1" fill="#F29D46" points="84 160 114 130 114 160"></polygon>
        <rect id="n-3-2" fill="#F29D46" x="118" y="130" width="30" height="30" rx="15"></rect>
        <polygon id="n-3-3" fill="#F29D46" points="152 160 152 130 182 130 182 160 167 145"></polygon>
        <polygon id="n-3-4" fill="#F29D46" points="186 130 216 160 186 160"></polygon>
        <polygon id="n-4-1" fill="#F29D46" points="84 164 114 164 84 194 114 194"></polygon>
        <path d="M118,194 C118,179 133,164 148,164 L118,164 L118,194 Z" id="n-4-2" fill="#F29D46"></path>
        <path d="M152,164 L182,164 L182,194 C182,179 167,164 152,164 Z" id="n-4-3" fill="#F29D46"></path>
        <rect id="n-4-4" fill="#F29D46" x="186" y="164" width="30" height="30"></rect>
        <rect id="n-5-1" fill="#F29D46" x="84" y="198" width="30" height="30" rx="15"></rect>
        <path d="M118,198 C118,213 133,228 148,228 L118,228 L118,198 Z" id="n-5-2" fill="#F29D46"></path>
        <polygon id="n-5-3" fill="#F29D46" points="152 228 182 198 182 228"></polygon>
        <polygon id="n-5-4" fill="#F29D46" points="186 213 201 198 216 213 216 228 186 228"></polygon>
        <path d="M84,232 L114,232 L114,262 C99,262 84,247 84,232 Z" id="n-6-1" fill="#F29D46"></path>
        <polyline id="n-6-2" fill="#F29D46" points="118 232 118 262 133.021953 246.978047 148 232 148 262"></polyline>
        <rect id="n-6-3" fill="#F29D46" x="152" y="232" width="30" height="30" rx="15"></rect>
        <polygon id="n-6-4" fill="#F29D46" points="186 232 186 262 216 232"></polygon>
    </g>
</svg>