<?xml version="1.0" encoding="UTF-8"?>
<svg width="300px" height="300px" viewBox="0 0 300 300" version="1.1" xmlns="http://www.w3.org/2000/svg" xmlns:xlink="http://www.w3.org/1999/xlink">
    <!-- Generator: Sketch 54.1 (76490) - https://sketchapp.com -->
    <title>Artboard Copy</title>
    <desc>Created with Sketch.</desc>
    <g id="Artboard-Copy" stroke="none" stroke-width="1" fill="none" fill-rule="evenodd">
        <circle id="n-1-1" fill="#F29D46" cx="111" cy="38" r="20"></circle>
        <polygon id="n-1-2" fill="#BD10E0" points="131 18 171 18 131 58 171 58"></polygon>
        <polygon id="n-1-3" fill="#F29D46" points="171 18 171 58 211 58 191 38 211 18"></polygon>
        <polygon id="n-2-1" fill="#BD10E0" points="31 71 70 71 70 111 50.5 91"></polygon>
        <polyline id="n-2-2" fill="#F29D46" points="70 71 70 111 90.0292713 90.9707287 110 71 110 111"></polyline>
        <polygon id="n-2-3" fill="#BD10E0" points="110 71 110 111 150 111 150 71 130 91"></polygon>
        <rect id="n-2-4" fill="#F29D46" x="150" y="71" width="40" height="40" rx="20"></rect>
        <rect id="n-2-5" fill="#BD10E0" x="190" y="71" width="40" height="40"></rect>
        <circle id="n-2-6" fill="#F29D46" cx="250" cy="91" r="20"></circle>
        <polygon id="n-3-1" fill="#BD10E0" points="70 162 110 122 110 162"></polygon>
        <rect id="n-3-2" fill="#F29D46" x="110" y="122" width="40" height="40" rx="20"></rect>
        <polygon id="n-3-3" fill="#BD10E0" points="150 162 150 122 190 122 190 162 170 142"></polygon>
        <polygon id="n-3-4" fill="#F29D46" points="190 122 230 162 190 162"></polygon>
        <polygon id="n-4-1" fill="#F29D46" points="70 162 110 162 70 202 110 202"></polygon>
        <path d="M110,202 C110,182 130,162 150,162 L110,162 L110,202 Z" id="n-4-2" fill="#BD10E0"></path>
        <path d="M150,162 L190,162 L190,202 C190,182 170,162 150,162 Z" id="n-4-3" fill="#F29D46"></path>
        <rect id="n-4-4" fill="#BD10E0" x="190" y="162" width="40" height="40"></rect>
        <rect id="n-5-1" fill="#BD10E0" x="70" y="202" width="40" height="40" rx="20"></rect>
        <path d="M110,202 C110,222 130,242 150,242 L110,242 L110,202 Z" id="n-5-2" fill="#F29D46"></path>
        <polygon id="n-5-3" fill="#BD10E0" points="150 242 190 202 190 242"></polygon>
        <polygon id="n-5-4" fill="#F29D46" points="190 222 210 202 230 222 230 242 190 242"></polygon>
        <path d="M70,242 L110,242 L110,282 C90,282 70,262 70,242 Z" id="n-6-1" fill="#F29D46"></path>
        <polyline id="n-6-2" fill="#BD10E0" points="110 242 110 282 130.029271 261.970729 150 242 150 282"></polyline>
        <rect id="n-6-3" fill="#F29D46" x="150" y="242" width="40" height="40" rx="20"></rect>
        <polygon id="n-6-4" fill="#BD10E0" points="190 242 190 282 230 242"></polygon>
    </g>
</svg>